<?xml version="1.0" encoding="UTF-8" standalone="no"?>
<svg width="83px" height="24px" viewBox="0 0 83 24" version="1.1" xmlns="http://www.w3.org/2000/svg" xmlns:xlink="http://www.w3.org/1999/xlink" xmlns:sketch="http://www.bohemiancoding.com/sketch/ns">
    <!-- Generator: Sketch 3.5.1 (25234) - http://www.bohemiancoding.com/sketch -->
    <title>hb_logo</title>
    <desc>Created with Sketch.</desc>
    <defs></defs>
    <g id="Page-1" stroke="none" stroke-width="1" fill="none" fill-rule="evenodd" sketch:type="MSPage">
        <g id="main" sketch:type="MSArtboardGroup" transform="translate(-1284.000000, -8088.000000)" fill="#8E8E8E">
            <g id="Group-2" sketch:type="MSLayerGroup" transform="translate(-296.000000, 0.000000)">
                <g id="footer" transform="translate(296.000000, 8057.000000)" sketch:type="MSShapeGroup">
                    <g id="dev" transform="translate(1181.000000, 31.000000)">
                        <g id="hb_logo" transform="translate(103.000000, 0.000000)">
                            <path d="M80.6617083,20.6337778 C78.5483853,19.1293827 63.8815606,18.4703704 43.3923752,19.3437531 C28.4748626,19.9796049 20.6579703,21.7712593 18.5825731,19.3598025 C15.8992705,16.2418272 24.761804,6.60804938 24.838301,4.93032099 C24.8969769,3.64419753 23.1583453,2.88479012 22.3433865,2.60034568 C22.2981138,2.58454321 22.2476784,2.5977284 22.2160074,2.63358025 C22.1843363,2.66948148 22.177734,2.72088889 22.1993776,2.76350617 C22.928755,4.20266667 19.2255749,8.43674074 17.3543519,12.538321 C15.5902544,12.380642 13.9828243,12.2832099 12.5225307,12.2360988 C14.8720462,7.7614321 17.7626503,3.25560494 17.7132077,1.93041975 C17.6690767,0.744888889 16.1224075,0.204987654 15.4818381,0.0319012346 C15.4432669,0.0214814815 15.4019655,0.031308642 15.3722304,0.0579259259 C15.342545,0.0845432099 15.3284966,0.124345679 15.3349003,0.163604938 C15.5381312,1.4122963 11.5571096,7.67634568 9.71169994,12.2070617 C2.86429922,12.3014815 0.147439175,13.6726914 0.0151455144,14.7220247 C-0.168427452,16.1785679 1.37660365,16.4028642 1.37660365,16.4028642 C2.40725317,15.2881975 4.8769003,13.6441975 7.49199599,13.2461728 C8.12219037,13.1502222 8.76112159,13.0752099 9.39876214,13.017284 C9.17632016,13.6292346 9.00451214,14.1981728 8.90289671,14.7034074 C8.28764432,17.7622222 8.73401752,19.5391605 9.16664013,20.4520494 C9.20953008,20.5426173 9.31020233,20.5911605 9.40829324,20.5687901 C9.50643379,20.5464198 9.57568319,20.4591605 9.57474001,20.3590123 C9.5571174,18.4919012 10.7339105,15.7137778 12.1976294,12.8618272 C14.115118,12.8169877 15.8724643,12.8912593 17.1607514,12.9779259 C16.0873112,15.5115556 15.8035127,17.9540741 17.8006258,19.6087901 C20.8498333,22.1351605 29.9235403,20.6608889 43.3810074,20.145679 C66.4176276,19.2637531 80.9053471,21.9694815 81.738127,24 C81.738127,24 82.2148309,21.7394074 80.6617083,20.6337778" id="Fill-1"></path>
                            <path d="M81.2164382,14.8823309 C79.5478503,17.298084 76.6601751,18.3704296 75.9832187,17.6717136 C74.7786266,16.4282568 76.4522779,12.9337877 77.8990196,9.92840494 C81.0892576,10.6921086 83.2002971,12.0101827 81.2164382,14.8823309 M50.8807325,17.200158 C50.5779215,16.9373432 50.7167678,15.6223802 54.1229448,14.9511704 C53.4317414,15.857837 51.567766,17.7965531 50.8807325,17.200158 M49.2235124,13.3545778 C47.9723072,16.2103309 46.449019,18.0123062 45.2524191,17.3524543 C43.6500525,16.4687012 47.287309,10.7297383 48.7517229,7.45670123 C49.2754867,7.49842963 50.5408395,7.55176296 51.113748,7.61596049 C51.2819322,7.63482469 51.4474855,7.64983704 51.6110034,7.66203457 C50.6462277,9.49867654 49.9807385,11.6261333 49.2235124,13.3545778 M57.5009753,3.33363951 C58.0923007,3.72282469 58.4512062,6.76568889 54.2907815,7.18800988 C55.5117056,4.5110716 56.5050249,2.67828148 57.5009753,3.33363951 M78.0833371,9.54519506 C78.8804747,7.88613333 79.5646786,6.41754074 79.5878114,5.62317037 C79.6278222,4.25097284 78.5229592,3.4859358 77.9906571,3.19788642 C77.9539227,3.17803457 77.9094442,3.17912099 77.8737026,3.20055309 C77.8379113,3.22203457 77.8163174,3.26075062 77.8168138,3.3022321 C77.825501,4.00065185 76.8839574,6.11121975 75.5250806,9.03003457 C73.8724275,8.73768889 72.0198198,8.4650963 70.0464352,8.1605037 C60.707446,6.71887407 60.3361798,4.44934321 60.4032947,3.95847901 C60.4032947,3.95847901 59.6417002,4.5405037 60.0909526,5.67487407 C60.7585764,7.36075062 64.3986625,7.78712099 70.046187,8.70361481 C71.6230877,8.95946667 73.5202731,9.16065185 75.3334657,9.44114568 C75.175458,9.77981235 75.0125357,10.128158 74.8451954,10.4859852 C72.5983874,15.2903309 70.5457259,18.0428247 69.8906117,17.4399111 C69.6747719,17.2412938 70.5264155,16.3352691 71.0751487,15.7926519 C71.4136517,15.4579358 71.5699221,14.9815901 71.4942193,14.5128 C71.371705,13.754084 70.9482163,13.427516 70.6121458,13.2869728 C70.378882,13.189442 70.1086356,13.2691457 69.9658676,13.4769975 C67.5036667,17.0612444 66.001873,17.5791704 65.723833,17.3210469 C65.3515243,16.9753679 65.5338066,15.9192198 67.1634263,14.3606025 C69.2455249,12.3691951 70.2768198,12.3636642 70.7300435,12.5754173 C70.7821667,12.599763 70.8437217,12.5916148 70.8875548,12.5545284 C70.931388,12.517442 70.9493581,12.4582815 70.9334729,12.4032198 C70.7600267,11.8006025 70.3362899,10.761837 69.4469191,10.5883556 C68.1810698,10.341442 66.7414765,11.3290963 65.3763449,12.9587259 C64.6572432,13.8171951 64.2133025,14.8631704 64.1477265,15.7928494 C62.4524813,17.5959605 60.5035202,17.7735901 59.8372863,17.1052444 C59.052559,16.3178864 59.5269298,15.0400099 60.065437,14.1345284 C60.6920572,13.0809975 62.5358784,11.5920593 63.1439825,12.2225778 C64.0036679,13.114084 60.1079795,15.2373926 59.992117,14.8056889 C59.992117,14.8056889 60.4850536,16.3238123 62.444638,14.5460346 C63.4930094,13.5949728 64.4541117,12.5603556 63.7652414,11.4627259 C62.8721972,10.0398123 59.9490782,10.0526519 58.7086452,12.0933432 C58.2732923,12.8094914 58.0041876,13.4871704 57.8730357,14.1107259 C57.5473898,14.1274173 57.234452,14.1474173 56.9335273,14.1704296 C57.566998,12.1569975 57.1696703,10.5106272 55.4945794,10.048158 C54.5071673,9.77556543 53.6342773,10.0665778 52.9839286,10.454479 C53.3578258,9.4433679 53.7529693,8.40702222 54.1083007,7.59729383 C55.7879586,7.40396049 57.3255931,6.86692346 57.9972875,6.06613333 C58.948809,4.93181235 58.5412056,3.59112099 57.782242,3.07275062 C55.9847857,1.84514568 53.6055847,3.99783704 51.8159717,7.27921975 C51.6209316,7.26391111 51.4202325,7.24470123 51.2130303,7.22089877 C50.6776505,7.15946667 49.4367211,7.10247901 48.9269065,7.05013333 C49.2473401,6.27472593 49.424013,5.6339358 49.3495513,5.22386173 C49.1126637,3.91897284 47.3513958,3.30326914 47.3513958,3.30326914 C47.7752815,3.42154074 47.0055955,5.21013333 46.2008132,6.80628148 C41.6593431,6.46825679 39.0584944,6.52168889 38.77276,7.43235556 C38.4045219,8.60603457 40.1803347,8.89408395 40.1803347,8.89408395 C41.4102935,7.6705284 43.379806,7.40870123 45.9205393,7.35576296 C45.3240513,8.51319506 44.6219765,9.80726914 43.9339005,11.0824296 C40.9152719,16.6760593 39.285007,17.5592198 38.8749711,17.1916642 C37.978998,16.3883062 43.104943,13.1139358 39.398437,11.4019852 C38.4449795,10.9616395 38.2401105,10.5506765 38.2401105,10.5506765 C38.2401105,10.5506765 38.9627367,8.00168889 37.2142265,7.78060247 C35.9036009,7.61487407 35.9859059,9.92756543 37.2144747,11.5559605 C35.7722008,15.5745284 34.3301751,17.9134914 33.706583,17.1303802 C33.4140973,16.7630716 33.8602719,16.0345284 34.2524867,15.5224296 C34.5881601,15.0841086 34.591635,14.4767506 34.2601314,14.0353185 C33.8855393,13.5366025 33.4483993,13.3045531 33.184507,13.2025284 C33.0549436,13.1524543 32.9090483,13.2113185 32.8508688,13.3368494 C31.1325405,17.0449975 29.4561589,17.3909728 29.1422779,17.0694914 C28.7171015,16.6339852 29.7987821,14.925837 30.2340853,14.3954667 C31.3062845,13.0891951 32.8639245,12.0964543 33.2634861,12.1562568 C33.3165028,12.1642074 33.3840644,12.2587259 33.4482504,12.3749235 C33.475007,12.4232691 33.5313497,12.4473679 33.5850118,12.4333926 C33.6386739,12.4194173 33.6758551,12.3708741 33.6753587,12.3156642 C33.6711392,11.8655407 33.6150447,11.2416889 33.3603359,10.9442074 C32.5991386,10.0553185 30.5293509,10.2530469 28.1485118,13.3255901 C27.431644,14.2506765 27.186367,15.2677136 27.2846565,16.1097383 L27.2846069,16.1096889 C25.5623072,17.7738864 23.4451123,17.8729481 22.7812612,16.904158 C22.2356553,16.1079605 22.7133025,14.9930469 23.3245339,14.1345284 C23.9511045,13.254479 25.9892211,11.596158 26.5346781,12.449442 C27.019126,13.2072691 24.4138096,14.411121 23.6578742,14.7403062 C23.5210136,14.7999111 23.4420345,14.9443062 23.4657133,15.0910716 C23.5787462,15.7918617 24.4786906,15.4812444 26.0713276,14.0686519 C27.1303718,13.1293926 27.4856039,12.2779358 27.1308186,11.6461333 C26.2541559,10.0851457 23.7216631,10.1303802 21.9676924,12.0933432 C18.5148527,15.9576889 23.5086033,20.4445037 27.3819532,16.5858864 C27.9246302,18.3933432 30.2559771,18.9214914 32.6732528,14.6152691 C32.6732528,14.6152691 31.4247779,16.831121 32.9527325,17.7947259 C34.9418533,19.0490469 36.6400273,14.5843556 37.5932367,11.9964543 C37.8573276,12.2655901 38.1588479,12.5020346 38.4966063,12.6859358 C38.4966063,12.6859358 36.0235339,16.2749235 37.922705,17.7193185 C39.7414077,19.1025778 42.4089741,14.7417383 43.4438928,12.9585778 C43.4438928,12.9585778 42.032992,16.3215407 44.8321075,17.6480099 C45.9569263,18.1810469 50.0015877,18.605442 52.5156141,11.731763 C53.0963162,10.9032691 53.9067576,10.1294914 54.7996033,10.4143309 C56.4216775,10.9319111 54.9784603,13.5604543 54.4381164,14.4737877 C50.5032612,15.170084 49.8735136,16.5679605 50.4772989,17.4258864 C51.3137522,18.6143802 55.4699574,17.9640593 56.7466781,14.7011951 C56.7565566,14.6760099 56.7654424,14.651121 56.7750231,14.6260346 C57.0993784,14.6049975 57.4407109,14.5883556 57.799269,14.5765037 C57.4530716,17.8753679 61.1424514,19.3869235 64.1667391,16.4329975 C64.246562,16.9987259 64.5017175,17.4823309 64.9633306,17.7959111 C66.0359269,18.5246519 67.7518724,16.9874173 68.769516,15.7034667 C68.769516,15.7034667 67.7295836,17.2689481 69.2494466,17.923763 C71.0615967,18.7044049 73.0190961,14.9905284 74.181394,12.9093926 C73.7116894,13.8068247 72.444748,16.7834173 75.4536966,18.1489975 C77.1229795,18.9066272 80.2585626,17.625837 81.9167259,15.3591704 C84.3725728,12.0021333 82.3541141,10.5490963 78.0833371,9.54519506" id="Fill-4"></path>
                        </g>
                    </g>
                </g>
            </g>
        </g>
    </g>
</svg>