<?xml version="1.0" encoding="UTF-8" standalone="no"?>
<svg width="20px" height="28px" viewBox="0 0 20 28" version="1.1" xmlns="http://www.w3.org/2000/svg" xmlns:xlink="http://www.w3.org/1999/xlink" xmlns:sketch="http://www.bohemiancoding.com/sketch/ns">
    <!-- Generator: Sketch 3.5.2 (25235) - http://www.bohemiancoding.com/sketch -->
    <title>point</title>
    <desc>Created with Sketch.</desc>
    <defs>
        <path id="path-1" d="M9.87654321,28 C15.3312074,19.7647059 19.7530864,15.3402258 19.7530864,9.88235294 C19.7530864,4.42448012 15.3312074,0 9.87654321,0 C4.42187901,0 0,4.42448012 0,9.88235294 C0,15.3402258 4.42187901,19.7647059 9.87654321,28 Z"></path>
    </defs>
    <g id="Page-1" stroke="none" stroke-width="1" fill="none" fill-rule="evenodd" sketch:type="MSPage">
        <g id="iPhone-5/5S/5C-Copy" sketch:type="MSArtboardGroup" transform="translate(-206.000000, -9290.000000)">
            <g id="point" sketch:type="MSLayerGroup" transform="translate(206.000000, 9290.000000)">
                <g id="Oval-24" opacity="0.8">
                    <use fill="none" sketch:type="MSShapeGroup" xlink:href="#path-1"></use>
                    <use fill="#FF2E2E" fill-rule="evenodd" xlink:href="#path-1"></use>
                    <use fill="none" xlink:href="#path-1"></use>
                    <use fill="none" xlink:href="#path-1"></use>
                    <use fill="none" xlink:href="#path-1"></use>
                </g>
                <g id="logo" transform="translate(3.523663, 3.074510)" fill="#FFFFEC" sketch:type="MSShapeGroup">
                    <path d="M7.10211872,0.169168029 L6.68604115,0.169168029 L6.68604115,5.89658522 C6.98191853,6.00870432 7.20382657,6.24228577 7.31478059,6.54127003 L12.4556501,6.54127003 L12.4556501,6.12082341 C12.4556501,0.8885989 9.88521535,0.169168029 7.10211872,0.169168029 L7.10211872,0.169168029 Z M7.51819629,5.74709309 L7.51819629,0.963344964 C10.1533542,0.963344964 11.512541,2.03781964 11.6142488,5.74709309 L7.51819629,5.74709309 L7.51819629,5.74709309 Z" id="Shape"></path>
                    <path d="M5.4723653,7.22661804 L0.340741946,7.22661804 L0.340741946,7.64706465 C0.340741946,12.8792892 2.91117671,13.59872 5.69427334,13.59872 L6.11035091,13.59872 L6.11035091,7.86195959 C5.81447352,7.75918375 5.58331932,7.5256023 5.4723653,7.22661804 L5.4723653,7.22661804 Z M5.27819577,12.8045431 C2.64303783,12.8045431 1.27460494,11.7300684 1.18214325,8.02079497 L5.27819577,8.02079497 L5.27819577,12.8045431 L5.27819577,12.8045431 Z" id="Shape"></path>
                </g>
            </g>
        </g>
    </g>
</svg>