<?xml version="1.0" encoding="UTF-8" standalone="no"?>
<svg width="17px" height="15px" viewBox="0 0 17 15" version="1.1" xmlns="http://www.w3.org/2000/svg" xmlns:xlink="http://www.w3.org/1999/xlink" xmlns:sketch="http://www.bohemiancoding.com/sketch/ns">
    <!-- Generator: Sketch 3.5.2 (25235) - http://www.bohemiancoding.com/sketch -->
    <title>Page 1</title>
    <desc>Created with Sketch.</desc>
    <defs></defs>
    <g id="Page-1" stroke="none" stroke-width="1" fill="none" fill-rule="evenodd" sketch:type="MSPage">
        <g id="main" sketch:type="MSArtboardGroup" transform="translate(-789.000000, -8095.000000)" fill="#5BD4FF">
            <g id="social-copy" sketch:type="MSLayerGroup" transform="translate(751.000000, 8090.000000)">
                <path d="M52.9975523,7.49361682 C53.7178035,7.06231056 54.2691377,6.37819833 54.5304437,5.56553034 C53.8548315,5.96494766 53.1090802,6.25497591 52.3144678,6.41219839 C51.6781612,5.73339172 50.7730764,5.31058547 49.7691859,5.31058547 C47.8432383,5.31058547 46.2816524,6.87217136 46.2816524,8.79706339 C46.2816524,9.07006384 46.312458,9.33670316 46.3719581,9.5916758 C43.4740089,9.44612001 40.9043103,8.05770107 39.1844464,5.94794763 C38.883807,6.46211513 38.7127789,7.06122722 38.7127789,7.70075605 C38.7127789,8.91073025 39.3289188,9.9783431 40.2637537,10.6029552 C39.692225,10.5838441 39.1546963,10.4266216 38.6841122,10.1652879 L38.6841122,10.2088435 C38.6841122,11.8979018 39.886642,13.3075708 41.4811446,13.6284046 C41.1890052,13.7070159 40.8809492,13.7505715 40.5622542,13.7505715 C40.3370594,13.7505715 40.1192812,13.7282659 39.9057531,13.6857658 C40.3497816,15.0720736 41.6373115,16.0801864 43.1627862,16.1078253 C41.969812,17.0426602 40.4655874,17.5982444 38.8317791,17.5982444 C38.5502787,17.5982444 38.2730004,17.5812444 38,17.5504388 C39.5435303,18.5415793 41.3760055,19.1194691 43.3455087,19.1194691 C49.7607414,19.1194691 53.2674138,13.8058216 53.2674138,9.19756405 L53.2557194,8.74609109 C53.9408872,8.25739585 54.5336381,7.64339484 55,6.9443937 C54.3743045,7.22164415 53.7029423,7.40967224 52.9975523,7.49361682 Z" id="Page-1" sketch:type="MSShapeGroup"></path>
            </g>
        </g>
    </g>
</svg>