<?xml version="1.0" encoding="UTF-8" standalone="no"?>
<svg width="244px" height="117px" viewBox="0 0 244 117" version="1.1" xmlns="http://www.w3.org/2000/svg" xmlns:xlink="http://www.w3.org/1999/xlink" xmlns:sketch="http://www.bohemiancoding.com/sketch/ns">
    <!-- Generator: Sketch 3.5.2 (25235) - http://www.bohemiancoding.com/sketch -->
    <title>Group Copy</title>
    <desc>Created with Sketch.</desc>
    <defs></defs>
    <g id="Page-1" stroke="none" stroke-width="1" fill="none" fill-rule="evenodd" sketch:type="MSPage">
        <g id="Комплектация" sketch:type="MSArtboardGroup" transform="translate(-676.000000, -265.000000)" stroke="#979797" fill="#FFFFFF">
            <g id="Group-Copy" sketch:type="MSLayerGroup" transform="translate(676.000000, 265.000000)">
                <path d="M106.793373,104.671875 L105.329539,92.3714305 C105.329539,92.3714305 85.8980334,90.5823006 85.433779,89.6813712 C84.9695245,88.7804418 86.4397225,86.9874225 90.6162446,86.4528051 C94.7927667,85.9181876 106.085146,85.5798087 106.085146,85.5798087 L105.393184,52.043878 C105.393184,52.043878 102.467638,47.4073444 102.467639,40.0860554 C102.530577,40.027007 51.1938645,40.2642612 9.34661234,35.9901502 C3.23952721,35.9272124 0.404852505,34.2593615 0.404852505,33.681607 C0.404852505,33.1038524 0.271198141,29.6553576 7.21521417,28.8375202 C14.1592302,28.0196828 33.0670797,25.6181472 92.7582503,24.2533169 C92.7939621,24.3250943 102.510069,24.3487843 102.510069,24.3487843 L102.565228,15.7107523 C102.565228,15.7107523 103.05635,13.8505523 104.57075,12.415359 C104.500034,12.3718683 104.531503,4.1181809 104.531503,4.1181809 L105.369141,3.52451509 L105.097589,2.84775727 L98.1023033,4.4795427 C98.1023033,4.4795427 102.474706,2.10134362 105.01874,2.10134362 C105.140019,1.66077923 106.064638,1.00806506 106.064638,1.00806506 L106.717353,1.82590248" id="Path-438" sketch:type="MSShapeGroup"></path>
                <path d="M107.098161,104.671875 L108.561995,92.3714305 C108.561995,92.3714305 127.993501,90.5823006 128.457755,89.6813712 C128.92201,88.7804418 127.451812,86.9874225 123.27529,86.4528051 C119.098768,85.9181876 107.806388,85.5798087 107.806388,85.5798087 L108.49835,52.043878 C108.49835,52.043878 111.423896,47.4073444 111.423895,40.0860554 C111.360958,40.027007 162.69767,40.2642612 204.544922,35.9901502 C210.652007,35.9272124 213.486682,34.2593615 213.486682,33.681607 C213.486682,33.1038524 213.620336,29.6553576 206.67632,28.8375202 C199.732304,28.0196828 180.824454,25.6181472 121.133284,24.2533169 C121.097572,24.3250943 111.381466,24.3487843 111.381466,24.3487843 L111.326307,15.7107523 C111.326307,15.7107523 110.835184,13.8505523 109.320784,12.415359 C109.391501,12.3718683 109.360032,4.1181809 109.360032,4.1181809 L108.522394,3.52451509 L108.963661,2.39976765 L117.2718,0.0604626886 C117.2718,0.0604626886 113.714406,0.159112338 108.963665,1.47585533 C108.842386,1.03529095 107.826896,1.00806506 107.826896,1.00806506 L107.174182,1.82590248" id="Path-438-Copy" sketch:type="MSShapeGroup"></path>
                <path d="M136.793373,116.671875 L135.329539,104.37143 C135.329539,104.37143 115.898033,102.582301 115.433779,101.681371 C114.969525,100.780442 116.439723,98.9874225 120.616245,98.4528051 C124.792767,97.9181876 136.085146,97.5798087 136.085146,97.5798087 L135.393184,64.043878 C135.393184,64.043878 132.467638,59.4073444 132.467639,52.0860554 C132.530577,52.027007 81.1938645,52.2642612 39.3466123,47.9901502 C33.2395272,47.9272124 30.4048525,46.2593615 30.4048525,45.681607 C30.4048525,45.1038524 30.2711981,41.6553576 37.2152142,40.8375202 C44.1592302,40.0196828 63.0670797,37.6181472 122.75825,36.2533169 C122.793962,36.3250943 132.510069,36.3487843 132.510069,36.3487843 L132.565228,27.7107523 C132.565228,27.7107523 133.05635,25.8505523 134.57075,24.415359 C134.500034,24.3718683 134.531503,16.1181809 134.531503,16.1181809 L135.369141,15.5245151 L135.097589,14.8477573 L128.102303,16.4795427 C128.102303,16.4795427 132.474706,14.1013436 135.01874,14.1013436 C135.140019,13.6607792 136.064638,13.0080651 136.064638,13.0080651 L136.717353,13.8259025" id="Path-438" sketch:type="MSShapeGroup"></path>
                <path d="M137.098161,116.671875 L138.561995,104.37143 C138.561995,104.37143 157.993501,102.582301 158.457755,101.681371 C158.92201,100.780442 157.451812,98.9874225 153.27529,98.4528051 C149.098768,97.9181876 137.806388,97.5798087 137.806388,97.5798087 L138.49835,64.043878 C138.49835,64.043878 141.423896,59.4073444 141.423895,52.0860554 C141.360958,52.027007 192.69767,52.2642612 234.544922,47.9901502 C240.652007,47.9272124 243.486682,46.2593615 243.486682,45.681607 C243.486682,45.1038524 243.620336,41.6553576 236.67632,40.8375202 C229.732304,40.0196828 210.824454,37.6181472 151.133284,36.2533169 C151.097572,36.3250943 141.381466,36.3487843 141.381466,36.3487843 L141.326307,27.7107523 C141.326307,27.7107523 140.835184,25.8505523 139.320784,24.415359 C139.391501,24.3718683 139.360032,16.1181809 139.360032,16.1181809 L138.522394,15.5245151 L138.963661,14.3997676 L147.2718,12.0604627 C147.2718,12.0604627 143.714406,12.1591123 138.963665,13.4758553 C138.842386,13.0352909 137.826896,13.0080651 137.826896,13.0080651 L137.174182,13.8259025" id="Path-438-Copy" sketch:type="MSShapeGroup"></path>
            </g>
        </g>
    </g>
</svg>