<?xml version="1.0" encoding="UTF-8" standalone="no"?>
<svg width="174px" height="110px" viewBox="0 0 174 110" version="1.1" xmlns="http://www.w3.org/2000/svg" xmlns:xlink="http://www.w3.org/1999/xlink" xmlns:sketch="http://www.bohemiancoding.com/sketch/ns">
    <!-- Generator: Sketch 3.5.2 (25235) - http://www.bohemiancoding.com/sketch -->
    <title>Group</title>
    <desc>Created with Sketch.</desc>
    <defs></defs>
    <g id="Page-1" stroke="none" stroke-width="1" fill="none" fill-rule="evenodd" sketch:type="MSPage">
        <g id="Комплектация" sketch:type="MSArtboardGroup" transform="translate(-1114.000000, -274.000000)" stroke="#979797">
            <g id="Group" sketch:type="MSLayerGroup" transform="translate(1114.000000, 274.000000)">
                <path d="M57.3979492,102.45459 L7.27539062,102.459961 L4.63623047,96.6552734 L2.70263672,96.3999023 L1.24169922,90.7636719 L2.89208984,87.0439453 L2.49609375,84.4155273 L0.215820312,82.0751953 L4.88623047,67.7456055 L7.19433594,68.6523438 L11.4082031,60.6430664 L13.7431641,58.9052734 L158.236816,59.3608398 L161.006348,60.7890625 L163.901855,68.5073242 L166.334473,68.887207 L167.751953,67.9804688 L173.626953,82.1479492 L170.320312,85.5307617 L171.216797,87.9311523 L172.166992,88.0615234 L173.508301,91.949707 L171.84668,96.543457 L170.30957,96.418457 L168.121582,101.837891 L118.025391,102.315918 L117.813477,106.07373 C117.813477,106.07373 88.7641602,112.947754 57.4067383,106.187988 C57.3730469,106.351074 57.3979492,102.45459 57.3979492,102.45459 Z" id="Path-442" sketch:type="MSShapeGroup"></path>
                <path d="M3.5,95.5 L170.5,95.5" id="Line" stroke-linecap="square" sketch:type="MSShapeGroup"></path>
                <path d="M11.409668,55.0605469 L6.32763672,12.6264648 C6.32763672,12.6264648 7.25244141,9.17236328 9.33105469,9.17236328 C11.409668,9.17236328 11.4223633,7.00048828 11.4223633,7.00048828 L12.5356445,6.82666016 L12.7094727,0.0390625 L17.5366211,0.0825195312 L17.7050781,6.09375 L18.4760742,7.20703125 L20.0673828,7.63623047 L20.6704102,9.06445312 L28.581543,9.24365234 L28.456543,7.09277344 L39.6157227,7.22314453 L40.2568359,9.23828125 L51.237793,9.23828125 L51.112793,0.278320312 L55.9619141,0.234863281 L56.3583984,8.81445312 L118.182129,9.29736328 L119.094238,0.452148438 L123.851074,0.327148438 L123.63916,8.83642578 L134.057185,8.83642578 L135.242676,7.27832031 L146.064941,7.57666016 L146.320312,9.30371094 L155.20508,9.30371094 L156.617188,0.800292969 L161.506133,0.800292969 L160.68457,9.07080078 L164.925293,9.35253906 C164.925293,9.35253906 168.14502,10.2202148 167.52002,13.3701172 C166.89502,16.5200195 160.749023,54.9199219 160.749023,54.9199219 L158.15332,57.2006836 L14.1151491,57.2006836 L11.409668,55.0605469 Z" id="Path-443" sketch:type="MSShapeGroup"></path>
                <path d="M27,50 L24,16 L90,16 L89,50 L27,50 Z" id="Path-444" sketch:type="MSShapeGroup"></path>
                <path d="M16.7661133,77.1259766 L68.2843611,77.1259766 L68.0239258,90.6513672 L13.3816253,90.6513672 L16.7661133,77.1259766 Z" id="Path-445" sketch:type="MSShapeGroup"></path>
                <path d="M75.7387695,73.8291016 L104.425293,73.8291016 L106.890625,91.0527344 L75.7719727,91.1831055 L75.7387695,73.8291016 Z" id="Path-446" sketch:type="MSShapeGroup"></path>
                <path d="M108.779785,65.0864258 L157.086423,65.0864258 L165.826172,90.1567383 L111.885184,90.1567383 L108.779785,65.0864258 Z" id="Path-447" sketch:type="MSShapeGroup"></path>
            </g>
        </g>
    </g>
</svg>