<?xml version="1.0" encoding="UTF-8" standalone="no"?>
<svg width="90px" height="182px" viewBox="0 0 90 182" version="1.1" xmlns="http://www.w3.org/2000/svg" xmlns:xlink="http://www.w3.org/1999/xlink" xmlns:sketch="http://www.bohemiancoding.com/sketch/ns">
    <!-- Generator: Sketch 3.5.2 (25235) - http://www.bohemiancoding.com/sketch -->
    <title>Group 2</title>
    <desc>Created with Sketch.</desc>
    <defs></defs>
    <g id="Page-1" stroke="none" stroke-width="1" fill="none" fill-rule="evenodd" sketch:type="MSPage">
        <g id="Комплектация" sketch:type="MSArtboardGroup" transform="translate(-724.000000, -597.000000)" stroke="#979797">
            <g id="Group-2" sketch:type="MSLayerGroup" transform="translate(724.000000, 598.000000)">
                <path d="M46.3642578,170.871094 L69.9082031,125.21582 L72.1547852,125.330566 L71.8076172,95.7265625 L57.7651367,95.8515625 L59.7583008,65.6113281 L71.5800257,65.6113281 L70.8793945,0.333496094 L72.3349671,0.333496094 L72.9379883,65.4326172 L87.0006491,65.4326172 L85.9921683,95.8515625 L73.8881836,95.8515625 L74.0478516,124.546875 L75.8994141,124.769531 L89.4907227,166.32959 L88.3061523,167.215332 L75.1655273,127.09375 L86.2426758,179.416016 L84.8579102,180.0625 L73.3305664,126.779297 L71.2402344,126.991211 L47.8862305,171.456543 L46.3642578,170.871094 Z" id="Path-450" sketch:type="MSShapeGroup"></path>
                <path d="M71.1035156,95.2558594 C71.1035156,95.2558594 44.6074219,178.984375 0.970703125,173.771484" id="Path-451" opacity="0.3" sketch:type="MSShapeGroup"></path>
            </g>
        </g>
    </g>
</svg>