<?xml version="1.0" encoding="UTF-8" standalone="no"?>
<svg width="202px" height="113px" viewBox="0 0 202 113" version="1.1" xmlns="http://www.w3.org/2000/svg" xmlns:xlink="http://www.w3.org/1999/xlink" xmlns:sketch="http://www.bohemiancoding.com/sketch/ns">
    <!-- Generator: Sketch 3.5.2 (25235) - http://www.bohemiancoding.com/sketch -->
    <title>Group 5</title>
    <desc>Created with Sketch.</desc>
    <defs></defs>
    <g id="Page-1" stroke="none" stroke-width="1" fill="none" fill-rule="evenodd" sketch:type="MSPage">
        <g id="Комплектация" sketch:type="MSArtboardGroup" transform="translate(-1082.000000, -632.000000)" stroke="#979797">
            <g id="Group-5" sketch:type="MSLayerGroup" transform="translate(1082.000000, 633.000000)">
                <g id="Group-3" sketch:type="MSShapeGroup">
                    <rect id="Rectangle-107" transform="translate(44.500000, 52.500000) rotate(-30.000000) translate(-44.500000, -52.500000) " x="22" y="5" width="45" height="95"></rect>
                    <path d="M87.6787109,82.7075195 L85.5991211,88.1323242 L47.4047852,110.764648 L0.588867188,29.1157227 L1.10986328,22.7412109" id="Path-452"></path>
                    <path d="M6.39892578,19.8754883 L9.11962891,24.3823242" id="Path-453"></path>
                    <path d="M10.3989258,17.8754883 L13.1196289,22.3823242" id="Path-453-Copy"></path>
                    <path d="M107.678711,82.7075195 L105.599121,88.1323242 L67.4047852,110.764648 L20.5888672,29.1157227 L21.1098633,22.7412109" id="Path-452" fill="#FFFFFF"></path>
                    <rect id="Rectangle-107" fill="#FFFFFF" transform="translate(64.500000, 52.500000) rotate(-30.000000) translate(-64.500000, -52.500000) " x="42" y="5" width="45" height="95"></rect>
                    <path d="M26.3989258,19.8754883 L29.1196289,24.3823242" id="Path-453"></path>
                    <path d="M30.3989258,17.8754883 L33.1196289,22.3823242" id="Path-453-Copy"></path>
                </g>
                <g id="Group-4" transform="translate(132.000000, 27.000000)" sketch:type="MSShapeGroup">
                    <path d="M46.2490234,0.251953125 L62.1430643,0.251953125 L62.1430643,4.99894397 L62.1430643,22.4435984 L46.5440232,22.4435984 L46.2490234,0.251953125 Z" id="Path-459"></path>
                    <path d="M62.5,4.5 L68.5,4.5" id="Line" stroke-linecap="square"></path>
                    <path d="M62.5,12.5 L68.5827627,12.5" id="Line" stroke-linecap="square"></path>
                    <path d="M46.5859375,11.6582031 C46.5859375,11.6582031 0.333984375,-0.678710937 0.333984375,23.0283203 C0.333984375,46.7353516 28.8076172,38.6445312 28.8076172,38.6445312 C28.8076172,38.6445312 34.6162109,36.3087336 34.6162109,30.2607422 C34.6162109,24.2127507 15.1669922,16.7050778 6.76074219,26.6748047 C-1.64550781,36.6445316 5.96679688,49.3183594 5.96679688,49.3183594" id="Path-462"></path>
                    <path d="M4.81835938,49.6416016 L7.63183594,48.0996094 L10.0322266,56.1279297 L4.81835938,49.6416016 Z" id="Path-463"></path>
                </g>
            </g>
        </g>
    </g>
</svg>