<?xml version="1.0" encoding="UTF-8" standalone="no"?>
<svg width="500px" height="500px" viewBox="0 0 500 500" version="1.1" xmlns="http://www.w3.org/2000/svg" xmlns:xlink="http://www.w3.org/1999/xlink" xmlns:sketch="http://www.bohemiancoding.com/sketch/ns">
    <!-- Generator: Sketch 3.5 (25232) - http://www.bohemiancoding.com/sketch -->
    <title>item1</title>
    <desc>Created with Sketch.</desc>
    <defs></defs>
    <g id="Page-1" stroke="none" stroke-width="1" fill="none" fill-rule="evenodd" sketch:type="MSPage">
        <g id="item1" sketch:type="MSLayerGroup">
            <path d="M500,250 C500,111.928812 388.071188,0 250,0 L233.870968,0 L233.870968,16.1290323 L233.870968,196.172524 L233.870968,212.55865 L250.255045,212.29954 C250.568194,212.295413 250.568194,212.295413 250.882532,212.294584 C271.961262,212.294584 289.13278,229.212428 289.465524,250.255015 L289.716538,266.129032 L305.59254,266.129032 L483.870968,266.129032 L500,266.129032 L500,250 L500,250 Z M467.741935,250 L483.870968,233.870968 L305.59254,233.870968 L321.719556,249.744985 C321.10838,211.094492 289.584711,180.036519 250.882532,180.036519 C250.313232,180.03802 250.313232,180.03802 249.744955,180.045509 L250,196.172524 L266.129032,196.172524 L266.129032,16.1290323 L250,32.2580645 C370.255551,32.2580645 467.741935,129.74445 467.741935,250 L467.741935,250 Z M250,467.741935 C129.74445,467.741935 32.2580645,370.255551 32.2580645,250 L16.1290323,266.129032 L196.172524,266.129032 L196.172524,250 L180.045509,249.744955 C180.03802,250.313232 180.03802,250.313232 180.036519,250.882532 C180.036519,289.584711 211.094492,321.10838 249.744985,321.719556 L233.870968,305.59254 L233.870968,483.870968 L250,467.741935 L250,467.741935 Z M250,500 L266.129032,500 L266.129032,483.870968 L266.129032,305.59254 L266.129032,289.716538 L250.255015,289.465524 C229.212428,289.13278 212.294584,271.961262 212.294584,250.882532 C212.295413,250.568194 212.295413,250.568194 212.29954,250.255045 L212.55865,233.870968 L196.172524,233.870968 L16.1290323,233.870968 L0,233.870968 L0,250 C0,388.071188 111.928812,500 250,500 L250,500 Z" id="Shape" fill="#fff" sketch:type="MSShapeGroup"></path>
            <path d="M483.870968,250 C483.870968,120.836631 379.163369,16.1290323 250,16.1290323 L250,196.172524 C250.293621,196.167881 250.587805,196.165552 250.882532,196.165552 C280.807158,196.165552 305.121121,220.18766 305.59254,250 L483.870968,250 L483.870968,250 Z M250,483.870968 C120.836631,483.870968 16.1290323,379.163369 16.1290323,250 L196.172524,250 C196.167881,250.293621 196.165552,250.587805 196.165552,250.882532 C196.165552,280.807158 220.18766,305.121121 250,305.59254 L250,483.870968 L250,483.870968 Z" id="path-1" sketch:type="MSShapeGroup"></path>
            <path d="M483.870968,250 C483.870968,120.836631 379.163369,16.1290323 250,16.1290323 L250,196.172524 C250.293621,196.167881 250.587805,196.165552 250.882532,196.165552 C280.807158,196.165552 305.121121,220.18766 305.59254,250 L483.870968,250 L483.870968,250 Z M250,483.870968 C120.836631,483.870968 16.1290323,379.163369 16.1290323,250 L196.172524,250 C196.167881,250.293621 196.165552,250.587805 196.165552,250.882532 C196.165552,280.807158 220.18766,305.121121 250,305.59254 L250,483.870968 L250,483.870968 Z" id="path-1" sketch:type="MSShapeGroup"></path>
            <circle id="path-2" sketch:type="MSShapeGroup" cx="250.441266" cy="250.441266" r="23.3870968"></circle>
            <circle id="path-2" sketch:type="MSShapeGroup" cx="250.441266" cy="250.441266" r="23.3870968"></circle>
            <circle id="path-2" sketch:type="MSShapeGroup" cx="250.441266" cy="250.441266" r="23.3870968"></circle>
        </g>
    </g>
</svg>