<?xml version="1.0" encoding="UTF-8" standalone="no"?>
<svg width="28px" height="28px" viewBox="0 0 28 28" version="1.1" xmlns="http://www.w3.org/2000/svg" xmlns:xlink="http://www.w3.org/1999/xlink" xmlns:sketch="http://www.bohemiancoding.com/sketch/ns">
    <!-- Generator: Sketch 3.4.4 (17249) - http://www.bohemiancoding.com/sketch -->
    <title>interactive-menu-item2</title>
    <desc>Created with Sketch.</desc>
    <defs></defs>
    <g id="Page-1" stroke="none" stroke-width="1" fill="none" fill-rule="evenodd" sketch:type="MSPage">
        <g id="main" sketch:type="MSArtboardGroup" transform="translate(-563.000000, -800.000000)">
            <g id="interactive-menu-item2" sketch:type="MSLayerGroup" transform="translate(564.000000, 801.000000)">
                <path d="M4,15 L9,8 L14,15 L18,11 L22,15" id="Stroke-2753" stroke="#FFFFFF" stroke-width="2" stroke-linecap="round" stroke-linejoin="round" sketch:type="MSShapeGroup"></path>
                <path d="M17,8 C17,9.1 16.105,10 15,10 C13.895,10 13,9.1 13,8 C13,6.9 13.895,6 15,6 C16.105,6 17,6.9 17,8" id="Fill-2755" fill="#FFFFFF" sketch:type="MSShapeGroup"></path>
                <path d="M24,26 L2,26 C0.9,26 0,25.1 0,24 L0,2 C0,0.9 0.9,0 2,0 L24,0 C25.1,0 26,0.9 26,2 L26,24 C26,25.1 25.1,26 24,26 L24,26 Z M0,22 L26,22 L0,22 Z M4,4 L22,4 L22,18 L4,18 L4,4 Z" id="Stroke-2756" stroke="#FFFFFF" stroke-width="2" stroke-linecap="round" stroke-linejoin="round" sketch:type="MSShapeGroup"></path>
            </g>
        </g>
    </g>
</svg>