<?xml version="1.0" encoding="UTF-8" standalone="no"?>
<svg width="10px" height="10px" viewBox="0 0 10 10" version="1.1" xmlns="http://www.w3.org/2000/svg" xmlns:xlink="http://www.w3.org/1999/xlink" xmlns:sketch="http://www.bohemiancoding.com/sketch/ns">
    <!-- Generator: Sketch 3.5.1 (25234) - http://www.bohemiancoding.com/sketch -->
    <title>Shape</title>
    <desc>Created with Sketch.</desc>
    <defs>
        <linearGradient x1="100%" y1="0%" x2="0%" y2="100%" id="linearGradient-1">
            <stop stop-color="#45C7FF" offset="0%"></stop>
            <stop stop-color="#3EFF6E" offset="100%"></stop>
        </linearGradient>
    </defs>
    <g id="Page-1" stroke="none" stroke-width="1" fill="none" fill-rule="evenodd" sketch:type="MSPage">
        <g id="main" sketch:type="MSArtboardGroup" transform="translate(-1556.000000, -2863.000000)" fill="url(#linearGradient-1)">
            <g id="Group-2" sketch:type="MSLayerGroup" transform="translate(-296.000000, 0.000000)">
                <g id="Group-Copy-3" transform="translate(1849.000000, 2864.000000)" sketch:type="MSShapeGroup">
                    <path d="M8,8.5 C10.4852814,8.5 12.5,6.48528137 12.5,4 C12.5,1.51471863 10.4852814,-0.5 8,-0.5 C5.51471863,-0.5 3.5,1.51471863 3.5,4 C3.5,6.48528137 5.51471863,8.5 8,8.5 L8,8.5 Z M8,7.5 C6.06700338,7.5 4.5,5.93299662 4.5,4 C4.5,2.06700338 6.06700338,0.5 8,0.5 C9.93299662,0.5 11.5,2.06700338 11.5,4 C11.5,5.93299662 9.93299662,7.5 8,7.5 L8,7.5 Z" id="Shape"></path>
                </g>
            </g>
        </g>
    </g>
</svg>