<?xml version="1.0" encoding="UTF-8" standalone="no"?>
<svg width="18px" height="18px" viewBox="0 0 18 18" version="1.1" xmlns="http://www.w3.org/2000/svg" xmlns:xlink="http://www.w3.org/1999/xlink" xmlns:sketch="http://www.bohemiancoding.com/sketch/ns">
    <!-- Generator: Sketch 3.5 (25232) - http://www.bohemiancoding.com/sketch -->
    <title>Group 3</title>
    <desc>Created with Sketch.</desc>
    <defs></defs>
    <g id="Page-1"  stroke-width="1" fill="none" fill-rule="evenodd" sketch:type="MSPage">
        <g id="main" sketch:type="MSArtboardGroup" transform="translate(-1552.000000, -104.000000)">
            <g id="Group" sketch:type="MSLayerGroup" transform="translate(1552.000000, 104.000000)">
                <g id="Group-3" sketch:type="MSShapeGroup">
                    <circle id="Oval-25"  cx="9" cy="9" r="4"></circle>
                    <path d="M0.5,9 C0.5,13.6944204 4.30557963,17.5 9,17.5 C9.27614237,17.5 9.5,17.2761424 9.5,17 C9.5,16.7238576 9.27614237,16.5 9,16.5 C4.85786438,16.5 1.5,13.1421356 1.5,9 C1.5,8.72385763 1.27614237,8.5 1,8.5 C0.723857625,8.5 0.5,8.72385763 0.5,9 L0.5,9 Z M17.5,9 C17.5,4.30557963 13.6944204,0.5 9,0.5 C8.72385763,0.5 8.5,0.723857625 8.5,1 C8.5,1.27614237 8.72385763,1.5 9,1.5 C13.1421356,1.5 16.5,4.85786438 16.5,9 C16.5,9.27614237 16.7238576,9.5 17,9.5 C17.2761424,9.5 17.5,9.27614237 17.5,9 L17.5,9 Z" id="Shape" ></path>
                </g>
            </g>
        </g>
    </g>
</svg>