<?xml version="1.0" encoding="UTF-8" standalone="no"?>
<svg width="34px" height="40px" viewBox="0 0 34 40" version="1.1" xmlns="http://www.w3.org/2000/svg" xmlns:xlink="http://www.w3.org/1999/xlink" xmlns:sketch="http://www.bohemiancoding.com/sketch/ns">
    <!-- Generator: Sketch 3.4.4 (17249) - http://www.bohemiancoding.com/sketch -->
    <title>features-list-item1</title>
    <desc>Created with Sketch.</desc>
    <defs></defs>
    <g id="Page-1" stroke="none" stroke-width="1" fill="none" fill-rule="evenodd" sketch:type="MSPage">
        <g id="main" sketch:type="MSArtboardGroup" transform="translate(-256.000000, -2040.000000)" stroke="#B7B8B3" stroke-width="2" stroke-linecap="round" stroke-linejoin="round">
            <g id="features-list-item1" sketch:type="MSLayerGroup" transform="translate(257.000000, 2041.000000)">
                <path d="M22,38 C22,38 32,30.03 32,22 C32,16.48 27.523,12 22,12 C16.477,12 12,16.48 12,22 C12,30.03 22,38 22,38 L22,38 Z M26,22 C26,24.21 24.209,26 22,26 C19.791,26 18,24.21 18,22 C18,19.79 19.791,18 22,18 C24.209,18 26,19.79 26,22 L26,22 Z" id="Stroke-2915" sketch:type="MSShapeGroup"></path>
                <path d="M6.53846154,17 C6.53846154,17 13.0769231,11.7888462 13.0769231,6.53846154 C13.0769231,2.92923077 10.1496538,0 6.53846154,0 C2.92726923,0 0,2.92923077 0,6.53846154 C0,11.7888462 6.53846154,17 6.53846154,17 L6.53846154,17 Z M9.15384615,6.53846154 C9.15384615,7.98346154 7.98280769,9.15384615 6.53846154,9.15384615 C5.09411538,9.15384615 3.92307692,7.98346154 3.92307692,6.53846154 C3.92307692,5.09346154 5.09411538,3.92307692 6.53846154,3.92307692 C7.98280769,3.92307692 9.15384615,5.09346154 9.15384615,6.53846154 L9.15384615,6.53846154 Z" id="Stroke-2915-Copy" sketch:type="MSShapeGroup"></path>
            </g>
        </g>
    </g>
</svg>