<?xml version="1.0" encoding="UTF-8" standalone="no"?>
<svg width="18px" height="39px" viewBox="0 0 18 39" version="1.1" xmlns="http://www.w3.org/2000/svg" xmlns:xlink="http://www.w3.org/1999/xlink" xmlns:sketch="http://www.bohemiancoding.com/sketch/ns">
    <!-- Generator: Sketch 3.4.4 (17249) - http://www.bohemiancoding.com/sketch -->
    <title>features-list-item3</title>
    <desc>Created with Sketch.</desc>
    <defs></defs>
    <g id="Page-1" stroke="none" stroke-width="1" fill="none" fill-rule="evenodd" sketch:type="MSPage">
        <g id="main" sketch:type="MSArtboardGroup" transform="translate(-963.000000, -2041.000000)" fill="#B4B5B1">
            <g id="features-list-item3" sketch:type="MSLayerGroup" transform="translate(963.000000, 2041.000000)">
                <path d="M4.56500813,15.7600063 C4.8732878,15.9209119 5.2579187,15.8094717 5.42423415,15.5114528 C5.59054959,15.2133522 5.47547317,14.8414214 5.1671935,14.6805975 C2.76225691,13.4260566 1.26829268,11.0119811 1.26829268,8.38050314 C1.26829268,4.43569811 4.58716098,1.22641509 8.66666667,1.22641509 C12.7461724,1.22641509 16.0650407,4.43569811 16.0650407,8.38050314 C16.0650407,11.0120629 14.5710764,13.4260566 12.1661398,14.6806792 C11.8578602,14.8414214 11.7428683,15.213434 11.9090992,15.5115346 C12.0236683,15.717 12.2421528,15.833673 12.4677398,15.833673 C12.5693724,15.833673 12.6725268,15.8099623 12.7682407,15.7600063 C15.5841041,14.2911698 17.3333333,11.4634654 17.3333333,8.38050314 C17.3333333,3.75945283 13.4455089,0 8.66666667,0 C3.88782439,0 0,3.75945283 0,8.38050314 C0,11.4634654 1.74922927,14.2910881 4.56500813,15.7600063 L4.56500813,15.7600063 Z" id="Shape" sketch:type="MSShapeGroup"></path>
                <path d="M10.9795252,11.5529119 C10.6935675,11.7484843 10.6257561,12.1312075 10.8280065,12.4076415 C10.9515382,12.5765597 11.1473626,12.6667421 11.3462309,12.6667421 C11.4728911,12.6667421 11.6006504,12.630195 11.711922,12.5541572 C13.1140618,11.5950189 13.9512195,10.0347736 13.9512195,8.38050314 C13.9512195,5.56285535 11.5805268,3.27044025 8.66666667,3.27044025 C5.7528065,3.27044025 3.38211382,5.56285535 3.38211382,8.38050314 C3.38211382,10.0347736 4.21927154,11.5950189 5.62141138,12.5541572 C5.9072,12.7498113 6.30307642,12.6841572 6.50532683,12.4076415 C6.70757724,12.1312075 6.63976585,11.7484843 6.35380813,11.5529119 C5.28717398,10.8233585 4.6504065,9.63741509 4.6504065,8.38050314 C4.6504065,6.23910063 6.45214309,4.49685535 8.66666667,4.49685535 C10.8811902,4.49685535 12.6829268,6.23910063 12.6829268,8.38050314 C12.6829268,9.63741509 12.0461593,10.8233585 10.9795252,11.5529119 L10.9795252,11.5529119 Z" id="Shape" sketch:type="MSShapeGroup"></path>
                <path d="M16.0701984,31.071717 C16.0696065,31.07 16.0689301,31.068283 16.0683382,31.0664843 L9.30081301,11.9575472 L9.30081301,10.1146541 C10.0388748,9.86152201 10.5691057,9.17996226 10.5691057,8.38050314 C10.5691057,7.36609434 9.71571382,6.5408805 8.66666667,6.5408805 C7.61761951,6.5408805 6.76422764,7.36609434 6.76422764,8.38050314 C6.76422764,9.17996226 7.29445854,9.86152201 8.03252033,10.1146541 L8.03252033,11.9577107 L5.58775935,18.8606289 C5.58589919,18.8659434 5.58386992,18.8711761 5.58217886,18.8764906 L3.47579837,24.8239497 C3.47300813,24.831717 3.46996423,24.8394025 3.46759675,24.8471698 L0.156,34.1976855 C0.0425300813,34.5181069 0.219160976,34.8668176 0.550439024,34.9765409 C0.618504065,34.9990252 0.687837398,35.0097358 0.755986992,35.0097358 C1.01953821,35.0097358 1.2657561,34.8496478 1.35588943,34.595044 L2.21528455,32.1685409 L8.03252033,35.428761 L8.03252033,38.3867925 C8.03252033,38.7254465 8.31644878,39 8.66666667,39 C9.01688455,39 9.30081301,38.7254465 9.30081301,38.3867925 L9.30081301,35.4288428 L15.1180488,32.1685409 L15.9767675,34.593327 C16.090322,34.9136667 16.4507707,35.0846289 16.7822179,34.9747421 C17.1134959,34.8650189 17.2901268,34.5163899 17.1766569,34.1959686 L16.0701984,31.071717 L16.0701984,31.071717 Z M6.48689431,20.1070755 L8.03252033,21.3778868 L8.03252033,26.9174403 L4.83075772,24.7833145 L6.48689431,20.1070755 L6.48689431,20.1070755 Z M9.30081301,21.3778868 L10.846439,20.1071572 L12.5025756,24.7833962 L9.30081301,26.9174403 L9.30081301,21.3778868 L9.30081301,21.3778868 Z M10.4048195,18.8603019 L9.30081301,19.7680126 L9.30081301,15.7429182 L10.4048195,18.8603019 L10.4048195,18.8603019 Z M8.66666667,7.7672956 C9.01637724,7.7672956 9.30081301,8.04233962 9.30081301,8.38050314 C9.30081301,8.71866667 9.01637724,8.99371069 8.66666667,8.99371069 C8.3169561,8.99371069 8.03252033,8.71866667 8.03252033,8.38050314 C8.03252033,8.04233962 8.3169561,7.7672956 8.66666667,7.7672956 L8.66666667,7.7672956 Z M8.03252033,19.7680126 L6.92851382,18.8603019 L8.03252033,15.7429182 L8.03252033,19.7680126 L8.03252033,19.7680126 Z M2.63415935,30.9857862 L4.40401951,25.9883899 L8.03252033,28.4069623 L8.03252033,34.0112704 L2.63415935,30.9857862 L2.63415935,30.9857862 Z M9.30081301,34.0113522 L9.30081301,28.407044 L12.9293138,25.9884717 L14.699174,30.9857862 L9.30081301,34.0113522 L9.30081301,34.0113522 Z" id="Shape" sketch:type="MSShapeGroup"></path>
            </g>
        </g>
    </g>
</svg>