<?xml version="1.0" encoding="UTF-8" standalone="no"?>
<svg width="30px" height="30px" viewBox="0 0 30 30" version="1.1" xmlns="http://www.w3.org/2000/svg" xmlns:xlink="http://www.w3.org/1999/xlink" xmlns:sketch="http://www.bohemiancoding.com/sketch/ns">
    <!-- Generator: Sketch 3.4.4 (17249) - http://www.bohemiancoding.com/sketch -->
    <title>features-list-item4</title>
    <desc>Created with Sketch.</desc>
    <defs></defs>
    <g id="Page-1" stroke="none" stroke-width="1" fill="none" fill-rule="evenodd" sketch:type="MSPage">
        <g id="main" sketch:type="MSArtboardGroup" transform="translate(-1301.000000, -2043.000000)" stroke="#B4B5B1">
            <path d="M1329.36293,2053.84794 L1329.39093,2053.82358 L1329.33131,2053.75359 C1327.53091,2048.10416 1322.2336,2044 1315.995,2044 C1308.27786,2044 1302,2050.27832 1302,2057.995 C1302,2065.71214 1308.27832,2071.99 1315.995,2071.99 C1323.71168,2071.99 1329.99,2065.71214 1329.99,2057.995 C1329.99045,2056.55172 1329.77059,2055.15897 1329.36293,2053.84794 L1329.36293,2053.84794 Z M1328.31194,2053.55862 L1321.40338,2059.46408 L1324.84794,2048.35974 C1326.38784,2049.77541 1327.5878,2051.55371 1328.31194,2053.55862 L1328.31194,2053.55862 Z M1324.09944,2047.7245 L1321.40202,2056.42128 L1318.12633,2045.07898 C1320.35693,2045.44601 1322.39793,2046.37867 1324.09944,2047.7245 L1324.09944,2047.7245 Z M1320.03371,2055.11562 L1320.11134,2055.16525 L1320.13371,2055.2307 C1320.10225,2055.19151 1320.06669,2055.15443 1320.03371,2055.11562 L1320.03371,2055.11562 Z M1320.05853,2057.995 C1320.05853,2060.02291 1318.56334,2061.70369 1316.61844,2062.00527 L1315.98236,2062.05717 C1315.43883,2062.05581 1314.9201,2061.9461 1314.44655,2061.74931 L1313.35357,2061.07571 C1313.11743,2060.87256 1312.90619,2060.64279 1312.72151,2060.39084 L1312.14861,2059.29294 C1312.01046,2058.88483 1311.93238,2058.44919 1311.93238,2057.99455 C1311.93238,2057.08444 1312.23668,2056.24605 1312.74405,2055.56844 L1313.69525,2054.6488 C1314.34986,2054.19734 1315.14216,2053.93147 1315.99538,2053.93147 C1318.23559,2053.93192 1320.05853,2055.75487 1320.05853,2057.995 L1320.05853,2057.995 Z M1315.995,2044.90292 C1316.38457,2044.90292 1316.76923,2044.92328 1317.1507,2044.9571 L1319.68061,2053.71614 L1309.9821,2046.37148 C1311.78431,2045.43519 1313.82803,2044.90292 1315.995,2044.90292 L1315.995,2044.90292 Z M1309.12616,2046.85585 L1317.67033,2053.32604 C1317.14616,2053.13735 1316.58371,2053.029 1315.995,2053.029 L1303.88393,2053.029 C1304.94074,2050.46164 1306.78949,2048.30186 1309.12616,2046.85585 L1309.12616,2046.85585 Z M1302.90292,2057.995 C1302.90292,2056.57653 1303.1327,2055.21178 1303.55163,2053.93192 L1313.14906,2053.93192 C1312.73868,2054.22041 1312.37574,2054.56936 1312.06917,2054.96574 L1303.8604,2062.90093 C1303.24513,2061.38448 1302.90292,2059.7295 1302.90292,2057.995 L1302.90292,2057.995 Z M1304.25277,2063.77676 L1311.01281,2057.24203 L1310.35412,2069.80048 C1307.70996,2068.53099 1305.552,2066.4042 1304.25277,2063.77676 L1304.25277,2063.77676 Z M1315.995,2071.08708 C1314.31649,2071.08708 1312.71341,2070.76431 1311.23759,2070.18642 L1311.74414,2060.52945 C1311.8114,2060.64188 1311.87367,2060.75786 1311.94955,2060.86439 L1317.24959,2071.02564 C1316.83649,2071.06498 1316.41847,2071.08708 1315.995,2071.08708 L1315.995,2071.08708 Z M1318.20169,2070.89747 L1313.78876,2062.43728 C1313.86775,2062.47655 1313.94583,2062.51718 1314.02671,2062.55198 L1323.73968,2068.54272 C1322.13297,2069.72505 1320.24723,2070.54899 1318.20169,2070.89747 L1318.20169,2070.89747 Z M1324.49045,2067.94455 L1316.37875,2062.94155 C1316.488,2062.93301 1316.59589,2062.91992 1316.70287,2062.90456 L1328.47991,2061.9371 C1327.73231,2064.29904 1326.33095,2066.37075 1324.49045,2067.94455 L1324.49045,2067.94455 Z M1328.73314,2061.01027 L1320.16052,2061.71451 L1328.60808,2054.49355 C1328.91866,2055.60907 1329.08753,2056.7824 1329.08753,2057.99545 C1329.08753,2059.0329 1328.96247,2060.04144 1328.73314,2061.01027 L1328.73314,2061.01027 Z" id="features-list-item4" sketch:type="MSShapeGroup"></path>
        </g>
    </g>
</svg>