<?xml version="1.0" encoding="UTF-8" standalone="no"?>
<svg width="299px" height="142px" viewBox="0 0 299 142" version="1.1" xmlns="http://www.w3.org/2000/svg" xmlns:xlink="http://www.w3.org/1999/xlink" xmlns:sketch="http://www.bohemiancoding.com/sketch/ns">
    <!-- Generator: Sketch 3.5.1 (25234) - http://www.bohemiancoding.com/sketch -->
    <title>Group</title>
    <desc>Created with Sketch.</desc>
    <defs>
        <linearGradient x1="100%" y1="0%" x2="0%" y2="100%" id="linearGradient-1">
            <stop stop-color="#45C7FF" offset="0%"></stop>
            <stop stop-color="#3EFF6E" offset="100%"></stop>
        </linearGradient>
    </defs>
    <g id="Page-1" stroke="none" stroke-width="1" fill="none" fill-rule="evenodd" sketch:type="MSPage">
        <g id="iPhone-5/5S/5C-Copy" sketch:type="MSArtboardGroup" transform="translate(-21.000000, -4018.000000)" stroke="url(#linearGradient-1)">
            <g id="Group" sketch:type="MSLayerGroup" transform="translate(-25.000000, 3103.000000)">
                <g transform="translate(42.000000, 910.965682)" sketch:type="MSShapeGroup">
                    <g>
                        <g>
                            <g transform="translate(157.024651, 75.312363) rotate(-2.000000) translate(-157.024651, -75.312363) translate(2.524651, 5.812363)">
                                <path d="M0.985932864,120.875162 C0.985932864,120.875162 23.5993589,53.8720836 80.8546774,58.8906538 C138.109996,63.9092239 159.471015,37.7591534 165.941092,25.6422749 C172.411168,13.5253963 175.073922,6.58267895 186.292811,0.185635006" id="Path-179"></path>
                                <path d="M8.94477064,122.037767 C8.94477064,122.037767 31.5581966,55.0346887 88.8135152,60.0532588 C146.068834,65.071829 167.429853,38.9217585 173.899929,26.80488 C180.370006,14.6880014 183.03276,7.74528405 194.251648,1.3482401" id="Path-179-Copy"></path>
                                <path d="M17.3224946,123.200372 C17.3224946,123.200372 39.9359206,56.1972938 97.1912392,61.2158639 C154.446558,66.2344341 175.807577,40.0843636 182.277653,27.9674851 C188.74773,15.8506065 191.410484,8.90788914 202.629372,2.5108452" id="Path-179-Copy-2"></path>
                                <path d="M25.2813324,124.362977 C25.2813324,124.362977 47.8947584,57.3598989 105.150077,62.378469 C162.405395,67.3970392 183.766414,41.2469687 190.236491,29.1300902 C196.706568,17.0132116 199.369322,10.0704942 210.58821,3.6734503" id="31-"></path>
                                <path d="M33.2401702,125.525582 C33.2401702,125.525582 55.8535961,58.522504 113.108915,63.5410741 C170.364233,68.5596443 191.725252,42.4095738 198.195329,30.2926953 C204.665406,18.1758167 207.328159,11.2330993 218.547048,4.83605539" id="Path-179-Copy-4"></path>
                                <path d="M41.6178941,126.688188 C41.6178941,126.688188 64.2313201,59.6851091 121.486639,64.7036792 C178.741957,69.7222494 200.102976,43.5721789 206.573053,31.4553003 C213.04313,19.3384218 215.705883,12.3957044 226.924772,5.99866049" id="Path-179-Copy-5"></path>
                                <path d="M49.9956181,127.850793 C49.9956181,127.850793 72.6090441,60.8477142 129.864363,65.8662843 C187.119681,70.8848545 208.4807,44.734784 214.950777,32.6179054 C221.420854,20.5010269 224.083607,13.5583095 235.302496,7.16126559" id="Path-179-Copy-6"></path>
                                <path d="M57.9544559,129.013398 C57.9544559,129.013398 80.5678819,62.0103193 137.8232,67.0288894 C195.078519,72.0474596 216.439538,45.8973891 222.909615,33.7805105 C229.379691,21.663632 232.042445,14.7209146 243.261334,8.32387068" id="Path-179-Copy-7"></path>
                                <path d="M65.9132936,130.176003 C65.9132936,130.176003 88.5267196,63.1729244 145.782038,68.1914945 C203.037357,73.2100647 224.398376,47.0599942 230.868452,34.9431156 C237.338529,22.8262371 240.001283,15.8835197 251.220171,9.48647578" id="Path-179-Copy-21"></path>
                                <path d="M73.8721314,131.338608 C73.8721314,131.338608 96.4855574,64.3355295 153.740876,69.3540996 C210.996195,74.3726698 232.357213,48.2225993 238.82729,36.1057207 C245.297367,23.9888422 247.960121,17.0461248 259.179009,10.6490809" id="Path-179-Copy-20"></path>
                                <path d="M82.2498554,132.501213 C82.2498554,132.501213 104.863281,65.4981346 162.1186,70.5167047 C219.373918,75.5352749 240.734937,49.3852044 247.205014,37.2683258 C253.675091,25.1514473 256.337845,18.2087299 267.556733,11.811686" id="Path-179-Copy-3"></path>
                                <path d="M90.2086932,133.663818 C90.2086932,133.663818 112.822119,66.6607397 170.077438,71.6793098 C227.332756,76.69788 248.693775,50.5478095 255.163852,38.4309309 C261.633929,26.3140524 264.296682,19.371335 275.515571,12.9742911" id="31--copy"></path>
                                <path d="M98.1675309,134.826423 C98.1675309,134.826423 120.780957,67.8233448 178.036275,72.8419149 C235.291594,77.8604851 256.652613,51.7104146 263.12269,39.593536 C269.592766,27.4766575 272.25552,20.5339401 283.474409,14.1368962" id="Path-179-Copy-19"></path>
                                <path d="M106.545255,135.989028 C106.545255,135.989028 129.158681,68.9859499 186.413999,74.00452 C243.669318,79.0230901 265.030337,52.8730197 271.500414,40.7561411 C277.97049,28.6392626 280.633244,21.6965452 291.852133,15.2995013" id="Path-179-Copy-18"></path>
                                <path d="M114.922979,137.151633 C114.922979,137.151633 137.536405,70.148555 194.791723,75.1671251 C252.047042,80.1856952 273.408061,54.0356248 279.878138,41.9187462 C286.348214,29.8018677 289.010968,22.8591503 300.229857,16.4621064" id="Path-179-Copy-17"></path>
                                <path d="M122.881817,138.314239 C122.881817,138.314239 145.495243,71.3111601 202.750561,76.3297302 C260.00588,81.3483003 281.366899,55.1982299 287.836975,43.0813513 C294.307052,30.9644728 296.969806,24.0217554 308.188694,17.6247115" id="Path-179-Copy-16"></path>
                            </g>
                        </g>
                    </g>
                </g>
            </g>
        </g>
    </g>
</svg>