<?xml version="1.0" encoding="UTF-8" standalone="no"?>
<svg width="19px" height="20px" viewBox="0 0 19 20" version="1.1" xmlns="http://www.w3.org/2000/svg" xmlns:xlink="http://www.w3.org/1999/xlink" xmlns:sketch="http://www.bohemiancoding.com/sketch/ns">
    <!-- Generator: Sketch 3.5.1 (25234) - http://www.bohemiancoding.com/sketch -->
    <title>Fill 3075 + Fill 3076</title>
    <desc>Created with Sketch.</desc>
    <defs></defs>
    <g id="Page-1" stroke="none" stroke-width="1" fill="none" fill-rule="evenodd" sketch:type="MSPage">
        <g id="main" sketch:type="MSArtboardGroup" transform="translate(-738.000000, -6604.000000)" fill="#FFFFFF">
            <g id="Group-2" sketch:type="MSLayerGroup" transform="translate(-296.000000, 0.000000)">
                <g id="Fill-3075-+-Fill-3076" transform="translate(1034.000000, 6604.000000)" sketch:type="MSShapeGroup">
                    <path d="M0.999,7.5 C0.999,3.916 3.915,1 7.499,1 C11.083,1 13.999,3.916 13.999,7.5 C13.999,11.084 11.083,14 7.499,14 C3.915,14 0.999,11.084 0.999,7.5 L0.999,7.5 Z M18.868,19.162 L12.925,12.678 C14.265,11.277 15,9.445 15,7.5 C15,5.497 14.22,3.613 12.804,2.197 C11.386,0.781 9.503,0 7.5,0 C5.497,0 3.612,0.78 2.197,2.197 C0.781,3.614 0,5.497 0,7.5 C0,9.503 0.78,11.387 2.197,12.803 C3.614,14.219 5.497,15 7.5,15 C9.226,15 10.862,14.421 12.188,13.355 L18.131,19.838 C18.229,19.946 18.364,20 18.5,20 C18.621,20 18.742,19.957 18.838,19.869 C19.042,19.682 19.056,19.366 18.869,19.163 L18.868,19.162 Z" id="Fill-3075"></path>
                    <path d="M11.499,7 L7.999,7 L7.999,3.5 C7.999,3.224 7.774,3 7.499,3 C7.224,3 6.999,3.224 6.999,3.5 L6.999,7 L3.499,7 C3.224,7 2.999,7.224 2.999,7.5 C2.999,7.776 3.224,8 3.499,8 L6.999,8 L6.999,11.5 C6.999,11.776 7.224,12 7.499,12 C7.774,12 7.999,11.776 7.999,11.5 L7.999,8 L11.499,8 C11.774,8 11.999,7.776 11.999,7.5 C11.999,7.224 11.774,7 11.499,7" id="Fill-3076"></path>
                </g>
            </g>
        </g>
    </g>
</svg>