<?xml version="1.0" encoding="UTF-8" standalone="no"?>
<svg width="9px" height="17px" viewBox="0 0 9 17" version="1.1" xmlns="http://www.w3.org/2000/svg" xmlns:xlink="http://www.w3.org/1999/xlink" xmlns:sketch="http://www.bohemiancoding.com/sketch/ns">
    <!-- Generator: Sketch 3.4.4 (17249) - http://www.bohemiancoding.com/sketch -->
    <title>Page 1</title>
    <desc>Created with Sketch.</desc>
    <defs></defs>
    <g id="Page-1" stroke="none" stroke-width="1" fill="none" fill-rule="evenodd" sketch:type="MSPage">
        <g id="main" sketch:type="MSArtboardGroup" transform="translate(-1467.000000, -26.000000)" fill="#4A70CF">
            <g id="social-copy" sketch:type="MSLayerGroup" transform="translate(1467.000000, 23.000000)">
                <path d="M6.64115146,3.47367661 C4.35067059,3.47367661 2.87046124,4.99232235 2.87046124,7.34282938 L2.87046124,9.12676788 L0.820575728,9.12676788 C0.643441282,9.12676788 0.5,9.27037272 0.5,9.44750717 L0.5,12.0322308 C0.5,12.2093652 0.643604841,12.3528065 0.820575728,12.3528065 L2.87046124,12.3528065 L2.87046124,18.874887 C2.87046124,19.0520214 3.01390252,19.1954627 3.19103696,19.1954627 L5.86555447,19.1954627 C6.04268891,19.1954627 6.18613019,19.0518578 6.18613019,18.874887 L6.18613019,12.3528065 L8.58292444,12.3528065 C8.76005888,12.3528065 8.90350016,12.2093652 8.90350016,12.0322308 L8.90448152,9.44750717 C8.90448152,9.36245646 8.8706248,9.28100406 8.81059863,9.22081433 C8.75057246,9.1606246 8.66879293,9.12676788 8.58374223,9.12676788 L6.18613019,9.12676788 L6.18613019,7.61450095 C6.18613019,6.88764456 6.35933922,6.51865535 7.30618253,6.51865535 L8.67958783,6.51816468 C8.85655872,6.51816468 9,6.37455983 9,6.19758895 L9,3.79752352 C9,3.6207162 8.85672228,3.47727491 8.67991495,3.4769478 L6.64115146,3.47367661 Z" id="Page-1" sketch:type="MSShapeGroup"></path>
            </g>
        </g>
    </g>
</svg>