<?xml version="1.0" encoding="UTF-8" standalone="no"?>
<svg width="32px" height="32px" viewBox="0 0 32 32" version="1.1" xmlns="http://www.w3.org/2000/svg" xmlns:xlink="http://www.w3.org/1999/xlink" xmlns:sketch="http://www.bohemiancoding.com/sketch/ns">
    <!-- Generator: Sketch 3.5.2 (25235) - http://www.bohemiancoding.com/sketch -->
    <title>Group 2</title>
    <desc>Created with Sketch.</desc>
    <defs>
        <linearGradient x1="100%" y1="0%" x2="0%" y2="100%" id="linearGradient-1">
            <stop stop-color="#45C7FF" offset="0%"></stop>
            <stop stop-color="#3EFF6E" offset="100%"></stop>
        </linearGradient>
    </defs>
    <g id="Page-1" stroke="none" stroke-width="1" fill="none" fill-rule="evenodd" sketch:type="MSPage">
        <g id="iPhone-5/5S/5C" sketch:type="MSArtboardGroup" transform="translate(-144.000000, -6273.000000)" fill="url(#linearGradient-1)">
            <g id="Group-2" sketch:type="MSLayerGroup" transform="translate(144.000000, 6273.000000)">
                <path d="M16,32 C24.836556,32 32,24.836556 32,16 C32,7.163444 24.836556,0 16,0 C7.163444,0 0,7.163444 0,16 C0,24.836556 7.163444,32 16,32 L16,32 Z M16,30 C8.2680135,30 2,23.7319865 2,16 C2,8.2680135 8.2680135,2 16,2 C23.7319865,2 30,8.2680135 30,16 C30,23.7319865 23.7319865,30 16,30 L16,30 Z" id="Shape" sketch:type="MSShapeGroup"></path>
                <path d="M9.16226678,14.8576203 L15.3027386,20.8576203 L15.8144446,21.3576203 L16.1638838,21.6990655 L16.5133229,21.3576203 L17.5367349,20.3576203 L17.9027278,20 L17.5367349,19.6423797 L17.0250289,19.1423797 L10.8845571,13.1423797 L10.3728512,12.6423797 L10.023412,12.3009345 L9.67397277,12.6423797 L8.6505608,13.6423797 L8.28456795,14 L8.6505608,14.3576203 L9.16226678,14.8576203 L9.86114518,14.1423797 L9.3494392,13.6423797 L9.3494392,14.3576203 L10.3728512,13.3576203 L9.67397277,13.3576203 L10.1856787,13.8576203 L16.3261505,19.8576203 L16.8378565,20.3576203 L16.8378565,19.6423797 L15.8144446,20.6423797 L16.5133229,20.6423797 L16.001617,20.1423797 L9.86114518,14.1423797 L9.16226678,14.8576203 L9.16226678,14.8576203 Z M23.1388548,14.1423797 L16.998383,20.1423797 L16.4866771,20.6423797 L17.1855554,20.6423797 L16.1621435,19.6423797 L16.1621435,20.3576203 L16.6738495,19.8576203 L22.8143213,13.8576203 L23.3260272,13.3576203 L22.6271488,13.3576203 L23.6505608,14.3576203 L23.6505608,13.6423797 L23.1388548,14.1423797 L23.8377332,14.8576203 L24.3494392,14.3576203 L24.715432,14 L24.3494392,13.6423797 L23.3260272,12.6423797 L22.976588,12.3009345 L22.6271488,12.6423797 L22.1154429,13.1423797 L15.9749711,19.1423797 L15.4632651,19.6423797 L15.0972722,20 L15.4632651,20.3576203 L16.4866771,21.3576203 L16.8361162,21.6990655 L17.1855554,21.3576203 L17.6972614,20.8576203 L23.8377332,14.8576203 L23.1388548,14.1423797 L23.1388548,14.1423797 Z" id="Shape" sketch:type="MSShapeGroup"></path>
            </g>
        </g>
    </g>
</svg>