<?xml version="1.0" encoding="UTF-8" standalone="no"?>
<svg width="726px" height="363px" viewBox="0 0 726 363" version="1.1" xmlns="http://www.w3.org/2000/svg" xmlns:xlink="http://www.w3.org/1999/xlink" xmlns:sketch="http://www.bohemiancoding.com/sketch/ns">
    <!-- Generator: Sketch 3.5.1 (25234) - http://www.bohemiancoding.com/sketch -->
    <title>Group</title>
    <desc>Created with Sketch.</desc>
    <defs>
        <linearGradient x1="100%" y1="0%" x2="0%" y2="100%" id="linearGradient-1">
            <stop stop-color="#45C7FF" offset="0%"></stop>
            <stop stop-color="#3EFF6E" offset="100%"></stop>
        </linearGradient>
    </defs>
    <g id="Page-1" stroke="none" stroke-width="1" fill="none" fill-rule="evenodd" sketch:type="MSPage">
        <g id="main" sketch:type="MSArtboardGroup" transform="translate(-327.000000, -3295.000000)" stroke="url(#linearGradient-1)">
            <g id="Group" sketch:type="MSLayerGroup" transform="translate(0.000000, 2826.000000)">
                <g transform="translate(690.000000, 650.500000) rotate(-2.000000) translate(-690.000000, -650.500000) translate(283.000000, 472.000000)" sketch:type="MSShapeGroup">
                    <path d="M16.8710937,271.132812 C16.8710937,271.132812 100.058594,110.238281 232.417969,146.726562 C364.777344,183.214844 426.714844,125.617187 447.355469,97.5078125 C467.996094,69.3984375 477.367187,52.859375 506.609375,41.2539062" id="Path-179" transform="translate(261.740234, 156.193359) rotate(-10.000000) translate(-261.740234, -156.193359) "></path>
                    <path d="M35.8710938,274.132813 C35.8710938,274.132813 119.058594,113.238281 251.417969,149.726563 C383.777344,186.214844 445.714844,128.617188 466.355469,100.507813 C486.996094,72.3984375 496.367187,55.859375 525.609375,44.2539063" id="Path-179-Copy" transform="translate(280.740234, 159.193359) rotate(-10.000000) translate(-280.740234, -159.193359) "></path>
                    <path d="M55.8710937,277.132813 C55.8710937,277.132813 139.058594,116.238281 271.417969,152.726563 C403.777344,189.214844 465.714844,131.617188 486.355469,103.507813 C506.996094,75.3984375 516.367187,58.859375 545.609375,47.2539063" id="Path-179-Copy-2" transform="translate(300.740234, 162.193359) rotate(-10.000000) translate(-300.740234, -162.193359) "></path>
                    <path d="M74.8710938,280.132813 C74.8710938,280.132813 158.058594,119.238281 290.417969,155.726563 C422.777344,192.214844 484.714844,134.617188 505.355469,106.507813 C525.996094,78.3984375 535.367187,61.859375 564.609375,50.2539063" id="31-" transform="translate(319.740234, 165.193359) rotate(-10.000000) translate(-319.740234, -165.193359) "></path>
                    <path d="M93.8710937,283.132813 C93.8710937,283.132813 177.058594,122.238281 309.417969,158.726563 C441.777344,195.214844 503.714844,137.617188 524.355469,109.507813 C544.996094,81.3984375 554.367187,64.859375 583.609375,53.2539063" id="Path-179-Copy-4" transform="translate(338.740234, 168.193359) rotate(-10.000000) translate(-338.740234, -168.193359) "></path>
                    <path d="M113.871094,286.132812 C113.871094,286.132812 197.058594,125.238281 329.417969,161.726562 C461.777344,198.214844 523.714844,140.617187 544.355469,112.507812 C564.996094,84.3984375 574.367187,67.859375 603.609375,56.2539062" id="Path-179-Copy-5" transform="translate(358.740234, 171.193359) rotate(-10.000000) translate(-358.740234, -171.193359) "></path>
                    <path d="M133.871094,289.132812 C133.871094,289.132812 217.058594,128.238281 349.417969,164.726562 C481.777344,201.214844 543.714844,143.617187 564.355469,115.507812 C584.996094,87.3984375 594.367187,70.859375 623.609375,59.2539062" id="Path-179-Copy-6" transform="translate(378.740234, 174.193359) rotate(-10.000000) translate(-378.740234, -174.193359) "></path>
                    <path d="M152.871094,292.132812 C152.871094,292.132812 236.058594,131.238281 368.417969,167.726562 C500.777344,204.214844 562.714844,146.617187 583.355469,118.507812 C603.996094,90.3984375 613.367187,73.859375 642.609375,62.2539062" id="Path-179-Copy-7" transform="translate(397.740234, 177.193359) rotate(-10.000000) translate(-397.740234, -177.193359) "></path>
                    <path d="M171.871094,295.132812 C171.871094,295.132812 255.058594,134.238281 387.417969,170.726562 C519.777344,207.214844 581.714844,149.617188 602.355469,121.507813 C622.996094,93.3984375 632.367187,76.859375 661.609375,65.2539063" id="Path-179-Copy-21" transform="translate(416.740234, 180.193359) rotate(-10.000000) translate(-416.740234, -180.193359) "></path>
                    <path d="M190.871094,298.132813 C190.871094,298.132813 274.058594,137.238281 406.417969,173.726563 C538.777344,210.214844 600.714844,152.617188 621.355469,124.507813 C641.996094,96.3984375 651.367187,79.859375 680.609375,68.2539063" id="Path-179-Copy-20" transform="translate(435.740234, 183.193359) rotate(-10.000000) translate(-435.740234, -183.193359) "></path>
                    <path d="M210.871094,301.132812 C210.871094,301.132812 294.058594,140.238281 426.417969,176.726562 C558.777344,213.214844 620.714844,155.617187 641.355469,127.507812 C661.996094,99.3984375 671.367187,82.859375 700.609375,71.2539062" id="Path-179-Copy-3" transform="translate(455.740234, 186.193359) rotate(-10.000000) translate(-455.740234, -186.193359) "></path>
                    <path d="M229.871094,304.132812 C229.871094,304.132812 313.058594,143.238281 445.417969,179.726562 C577.777344,216.214844 639.714844,158.617187 660.355469,130.507812 C680.996094,102.398437 690.367187,85.859375 719.609375,74.2539062" id="31--copy" transform="translate(474.740234, 189.193359) rotate(-10.000000) translate(-474.740234, -189.193359) "></path>
                    <path d="M248.871094,307.132812 C248.871094,307.132812 332.058594,146.238281 464.417969,182.726562 C596.777344,219.214844 658.714844,161.617187 679.355469,133.507812 C699.996094,105.398437 709.367187,88.859375 738.609375,77.2539062" id="Path-179-Copy-19" transform="translate(493.740234, 192.193359) rotate(-10.000000) translate(-493.740234, -192.193359) "></path>
                    <path d="M268.871094,310.132812 C268.871094,310.132812 352.058594,149.238281 484.417969,185.726562 C616.777344,222.214844 678.714844,164.617187 699.355469,136.507812 C719.996094,108.398437 729.367187,91.859375 758.609375,80.2539062" id="Path-179-Copy-18" transform="translate(513.740234, 195.193359) rotate(-10.000000) translate(-513.740234, -195.193359) "></path>
                    <path d="M288.871094,313.132812 C288.871094,313.132812 372.058594,152.238281 504.417969,188.726562 C636.777344,225.214844 698.714844,167.617187 719.355469,139.507812 C739.996094,111.398437 749.367187,94.859375 778.609375,83.2539062" id="Path-179-Copy-17" transform="translate(533.740234, 198.193359) rotate(-10.000000) translate(-533.740234, -198.193359) "></path>
                    <path d="M307.871094,316.132812 C307.871094,316.132812 391.058594,155.238281 523.417969,191.726562 C655.777344,228.214844 717.714844,170.617187 738.355469,142.507812 C758.996094,114.398437 768.367187,97.859375 797.609375,86.2539062" id="Path-179-Copy-16" transform="translate(552.740234, 201.193359) rotate(-10.000000) translate(-552.740234, -201.193359) "></path>
                </g>
            </g>
        </g>
    </g>
</svg>