<?xml version="1.0" encoding="UTF-8" standalone="no"?>
<svg width="19px" height="19px" viewBox="0 0 19 19" version="1.1" xmlns="http://www.w3.org/2000/svg" xmlns:xlink="http://www.w3.org/1999/xlink" xmlns:sketch="http://www.bohemiancoding.com/sketch/ns">
    <!-- Generator: Sketch 3.4.2 (15855) - http://www.bohemiancoding.com/sketch -->
    <title>ico-task-approoved</title>
    <desc>Created with Sketch.</desc>
    <defs></defs>
    <g id="Work" stroke="none" stroke-width="1" fill="none" fill-rule="evenodd" sketch:type="MSPage">
        <g id="Selection-pack,-Approve,-contexts" sketch:type="MSArtboardGroup" transform="translate(-1530.000000, -668.000000)" fill="#47C5A2">
            <g id="hover-on-user" sketch:type="MSLayerGroup" transform="translate(1501.000000, 654.000000)">
                <g id="ico-task-approoved" transform="translate(29.000000, 14.000000)" sketch:type="MSShapeGroup">
                    <path d="M9.025,19 C6.6139,19 4.34815,18.0614 2.6429,16.3571 C0.93765,14.6528 0,12.3861 0,9.97595 C0,7.56485 0.9386,5.2991 2.6429,3.59385 C4.3472,1.8886 6.6139,0.95 9.025,0.95 C11.4361,0.95 13.70185,1.8886 15.4071,3.59385 C17.11235,5.2991 18.05,7.56485 18.05,9.97595 C18.05,12.38705 17.1114,14.6528 15.4071,16.3571 C13.7028,18.0614 11.4361,19 9.025,19 L9.025,19 Z M9.025,1.9 C4.57235,1.9 0.95,5.52235 0.95,9.975 C0.95,14.4286 4.57235,18.05 9.025,18.05 C13.47765,18.05 17.1,14.4286 17.1,9.975 C17.1,5.52235 13.47765,1.9 9.025,1.9 L9.025,1.9 Z" id="Fill-1-Copy-2"></path>
                    <path d="M7.1252375,14.2492875 C7.0036375,14.2492875 6.8820375,14.2027375 6.7889375,14.1105875 L3.9389375,11.2605875 C3.7536875,11.0753375 3.7536875,10.7741875 3.9389375,10.5889375 C4.1241875,10.4036875 4.4253375,10.4036875 4.6105875,10.5889375 L7.1242875,13.1026375 L13.4379875,6.7889375 C13.6232375,6.6036875 13.9243875,6.6036875 14.1096375,6.7889375 C14.2948875,6.9741875 14.2948875,7.2753375 14.1096375,7.4605875 L7.4596375,14.1105875 C7.3665375,14.2036875 7.2449375,14.2492875 7.1233375,14.2492875 L7.1252375,14.2492875" id="Fill-2-Copy-2"></path>
                </g>
            </g>
        </g>
    </g>
</svg>