<?xml version="1.0" encoding="UTF-8" standalone="no"?>
<svg width="20px" height="20px" viewBox="0 0 20 20" version="1.1" xmlns="http://www.w3.org/2000/svg" xmlns:xlink="http://www.w3.org/1999/xlink" xmlns:sketch="http://www.bohemiancoding.com/sketch/ns">
    <path d="M10,20 C15.5228475,20 20,15.5228475 20,10 C20,4.4771525 15.5228475,0 10,0 C4.4771525,0 0,4.4771525 0,10 C0,15.5228475 4.4771525,20 10,20 L10,20 Z M9,11 L6.5,11 L5.5,11 L5.5,9 L6.5,9 L9,9 L9,6.5 L9,5.5 L11,5.5 L11,6.5 L11,9 L13.5,9 L14.5,9 L14.5,11 L13.5,11 L11,11 L11,13.5 L11,14.5 L9,14.5 L9,13.5 L9,11 L9,11 Z"></path>
</svg>