<?xml version="1.0" encoding="UTF-8" standalone="no"?>
<svg width="17px" height="15px" viewBox="0 0 17 15" version="1.1" xmlns="http://www.w3.org/2000/svg" xmlns:xlink="http://www.w3.org/1999/xlink" xmlns:sketch="http://www.bohemiancoding.com/sketch/ns">
    <path d="M2,1.001 C1.914,1.001 1.762,1.095 1.725,1.172 L1.171,2.278 C1.083,2.454 1,2.805 1,3.002 L1,13.502 C1,13.778 1.225,14.002 1.5,14.002 L15.5,14.002 C15.775,14.002 16,13.778 16,13.502 L16,3.502 C16,3.226 15.775,3.002 15.5,3.002 L11,3.002 C10.539,3.002 10.035,2.691 9.829,2.278 L9.275,1.172 C9.238,1.095 9.085,1.001 9,1.001 L2,1.001 Z M1.5,15.001 C0.673,15.001 0,14.328 0,13.501 L0,3.001 C0,2.649 0.119,2.145 0.275,1.83 L0.829,0.724 C1.035,0.311 1.539,0 2,0 L9,0 C9.461,0 9.964,0.311 10.171,0.724 L10.725,1.83 C10.762,1.907 10.915,2.001 11,2.001 L15.5,2.001 C16.327,2.001 17,2.674 17,3.501 L17,13.501 C17,14.328 16.327,15.001 15.5,15.001 L1.5,15.001 Z" sketch:type="MSShapeGroup"></path>
    <path d="M11.5,8.001 L9,8.001 L9,5.501 C9,5.225 8.775,5.001 8.5,5.001 C8.225,5.001 8,5.225 8,5.501 L8,8.001 L5.5,8.001 C5.225,8.001 5,8.225 5,8.501 C5,8.777 5.225,9.001 5.5,9.001 L8,9.001 L8,11.501 C8,11.777 8.225,12.001 8.5,12.001 C8.775,12.001 9,11.777 9,11.501 L9,9.001 L11.5,9.001 C11.775,9.001 12,8.777 12,8.501 C12,8.225 11.775,8.001 11.5,8.001" sketch:type="MSShapeGroup"></path>
</svg>