<?xml version="1.0" encoding="UTF-8" standalone="no"?>
<svg width="90px" height="90px" viewBox="0 0 90 90" version="1.1" xmlns="http://www.w3.org/2000/svg" xmlns:xlink="http://www.w3.org/1999/xlink" xmlns:sketch="http://www.bohemiancoding.com/sketch/ns">
    <!-- Generator: Sketch 3.4.4 (17249) - http://www.bohemiancoding.com/sketch -->
    <title>ico-add-file</title>
    <desc>Created with Sketch.</desc>
    <defs>
        <path id="path-1" d="M44,88 C68.300529,88 88,69.0855925 88,44.5057471 C88,19.9259017 68.300529,0 44,0 C19.699471,0 0,19.9259017 0,44.5057471 C0,69.0855925 19.699471,88 44,88 Z"></path>
    </defs>
    <g id="Page-1" stroke="none" stroke-width="1" fill="none" fill-rule="evenodd" sketch:type="MSPage">
        <g id="Artboard-1" sketch:type="MSArtboardGroup" transform="translate(-156.000000, -146.000000)">
            <g id="ico-add-file" sketch:type="MSLayerGroup" transform="translate(157.000000, 147.000000)">
                <g id="Oval-30-Copy">
                    <use stroke="none" sketch:type="MSShapeGroup" xlink:href="#path-1"></use>
                    <use stroke="none" xlink:href="#path-1"></use>
                    <use stroke="#D4D8E2" stroke-width="1" stroke-linecap="round" stroke-linejoin="round" stroke-dasharray="8,8,8,8" xlink:href="#path-1"></use>
                </g>
                <path d="M28,23.0049233 C28,21.8976348 28.8921516,21 29.9979259,21 L51.9997559,21 C51.9997559,21.0747559 61.9997559,29.9497559 62,29.8872559 L62,63.0008811 C62,64.104964 61.1080589,65 60.0000796,65 L29.9999204,65 C28.8953949,65 28,64.1011449 28,62.9950767 L28,23.0049233 Z" id="Rectangle-1026" fill="#E4E6EC" sketch:type="MSShapeGroup"></path>
                <path d="M52,21 C51.9997559,21 62.0622559,30.1875 62.0622559,30.0502441 L53.9975701,30.0502441 C52.8943426,30.0502441 52,29.1470919 52,28.0462702 L52,21 Z" id="Rectangle-1026-Copy" fill="#E4E6EB" sketch:type="MSShapeGroup"></path>
                <circle id="Oval-1-Copy-13" fill="#FFFFFF" sketch:type="MSShapeGroup" cx="42" cy="51" r="10"></circle>
                <rect id="Rectangle-84" fill="#D4D8E2" sketch:type="MSShapeGroup" x="37" y="50" width="10" height="2" rx="3"></rect>
                <rect id="Rectangle-84-Copy" fill="#D4D8E2" sketch:type="MSShapeGroup" transform="translate(42.000000, 51.000000) rotate(-270.000000) translate(-42.000000, -51.000000) " x="37" y="50" width="10" height="2" rx="3"></rect>
                <path d="M51.5031738,20.9804688 L51.5031738,28.5495605 C51.5031738,28.5495605 51.4145508,30.5435791 53.6906738,30.5435791 L61.9849854,30.5435791" id="Path-4190" stroke="#FFFFFF" sketch:type="MSShapeGroup"></path>
            </g>
        </g>
    </g>
</svg>