<?xml version="1.0" encoding="UTF-8" standalone="no"?>
<svg width="19px" height="19px" viewBox="0 0 19 19" version="1.1" xmlns="http://www.w3.org/2000/svg" xmlns:xlink="http://www.w3.org/1999/xlink" xmlns:sketch="http://www.bohemiancoding.com/sketch/ns">
    <g>
        <path d="M9.502,19.001 C6.964,19.001 4.579,18.013 2.784,16.219 C0.989,14.425 0.002,12.039 0.002,9.502 C0.002,6.964 0.99,4.579 2.784,2.784 C4.578,0.989 6.964,0.001 9.502,0.001 C12.04,0.001 14.425,0.989 16.22,2.784 C18.015,4.579 19.002,6.964 19.002,9.502 C19.002,12.04 18.014,14.425 16.22,16.219 C14.426,18.013 12.04,19.001 9.502,19.001 L9.502,19.001 Z M9.502,1.001 C4.815,1.001 1.002,4.814 1.002,9.501 C1.002,14.189 4.815,18.001 9.502,18.001 C14.189,18.001 18.002,14.189 18.002,9.501 C18.002,4.814 14.189,1.001 9.502,1.001 L9.502,1.001 Z"></path>
        <path d="M7.502,13.501 C7.374,13.501 7.246,13.452 7.148,13.355 L4.148,10.355 C3.953,10.16 3.953,9.843 4.148,9.648 C4.343,9.453 4.66,9.453 4.855,9.648 L7.501,12.294 L14.147,5.648 C14.342,5.453 14.659,5.453 14.854,5.648 C15.049,5.843 15.049,6.16 14.854,6.355 L7.854,13.355 C7.756,13.453 7.628,13.501 7.5,13.501 L7.502,13.501"></path>
    </g>
</svg>