<?xml version="1.0" encoding="UTF-8" standalone="no"?>
<svg width="18px" height="17px" viewBox="0 0 18 17" version="1.1" xmlns="http://www.w3.org/2000/svg" xmlns:xlink="http://www.w3.org/1999/xlink" xmlns:sketch="http://www.bohemiancoding.com/sketch/ns">
    <path d="M9.75025,10.997 C8.80725,10.997 7.86425,10.638 7.14625,9.92 C6.95125,9.725 6.95125,9.408 7.14625,9.213 C7.34225,9.018 7.65825,9.018 7.85425,9.213 C8.89925,10.259 10.60125,10.259 11.64625,9.213 L15.28225,5.577 C16.32825,4.531 16.32825,2.83 15.28225,1.784 C14.23625,0.738 12.53525,0.738 11.48925,1.784 L8.42225,4.852 C8.22725,5.047 7.90925,5.047 7.71525,4.852 C7.52025,4.657 7.52025,4.34 7.71525,4.145 L10.78225,1.077 C12.21925,-0.359 14.55525,-0.359 15.98925,1.077 C17.42425,2.513 17.42625,4.849 15.98925,6.284 L12.35425,9.92 C11.63525,10.638 10.69225,10.997 9.75025,10.997"></path>
    <path d="M3.68025,16.997 C2.73725,16.997 1.79425,16.638 1.07625,15.92 C-0.35875,14.484 -0.35875,12.148 1.07625,10.713 L4.71225,7.077 C6.14925,5.641 8.48525,5.641 9.91925,7.077 C10.11525,7.272 10.11525,7.589 9.91925,7.784 C9.72525,7.979 9.40825,7.979 9.21225,7.784 C8.16625,6.738 6.46525,6.738 5.41925,7.784 L1.78425,11.42 C0.73725,12.466 0.73725,14.167 1.78425,15.213 C2.82925,16.259 4.53125,16.259 5.57625,15.213 L8.64525,12.145 C8.83925,11.95 9.15725,11.95 9.35225,12.145 C9.54625,12.34 9.54625,12.657 9.35225,12.852 L6.28425,15.92 C5.56525,16.638 4.62225,16.997 3.68025,16.997"></path>
</svg>