<?xml version="1.0" encoding="UTF-8" standalone="no"?><svg xmlns="http://www.w3.org/2000/svg" xmlns:xlink="http://www.w3.org/1999/xlink"><symbol viewBox="0 0 83 24" id="footer--hb_logo"><title>hb_logo</title><g fill="#8E8E8E" fill-rule="evenodd"><path d="M80.662 20.634c-2.114-1.505-16.78-2.164-37.27-1.29-14.917.636-22.734 2.427-24.81.016-2.683-3.118 6.18-12.752 6.256-14.43.06-1.286-1.68-2.045-2.495-2.33a.118.118 0 0 0-.127.034.117.117 0 0 0-.017.13c.73 1.44-2.974 5.673-4.846 9.774a85.31 85.31 0 0 0-4.83-.302c2.348-4.475 5.24-8.98 5.19-10.306C17.668.745 16.12.205 15.48.032c-.04-.01-.08 0-.11.026a.117.117 0 0 0-.037.106c.203 1.248-3.778 7.512-5.623 12.043C2.864 12.3.147 13.673.015 14.722c-.183 1.457 1.362 1.68 1.362 1.68 1.03-1.114 3.5-2.758 6.115-3.156.63-.096 1.27-.17 1.907-.23-.224.613-.395 1.182-.497 1.687-.615 3.06-.17 4.836.264 5.75a.215.215 0 0 0 .408-.094c-.018-1.868 1.16-4.646 2.623-7.498 1.917-.045 3.674.03 4.963.116-1.073 2.534-1.356 4.976.64 6.63 3.05 2.527 12.124 1.053 25.58.538C66.42 19.264 80.906 21.97 81.74 24c0 0 .477-2.26-1.076-3.366"/><path d="M81.216 14.882c-1.668 2.416-4.556 3.488-5.233 2.79-1.204-1.244.47-4.738 1.916-7.744 3.19.764 5.3 2.082 3.316 4.954M50.88 17.2c-.302-.263-.163-1.578 3.243-2.25-.69.908-2.555 2.847-3.242 2.25m-1.656-3.845c-1.252 2.855-2.775 4.657-3.972 3.997-1.602-.883 2.035-6.622 3.5-9.895.523.04 1.79.095 2.362.16.168.018.333.033.497.045-.964 1.837-1.63 3.964-2.386 5.693M57.5 3.335c.592.388.95 3.43-3.21 3.853 1.222-2.677 2.215-4.51 3.21-3.854m20.583 6.21c.797-1.658 1.482-3.126 1.505-3.92.04-1.373-1.065-2.138-1.597-2.426a.118.118 0 0 0-.173.104c.01.7-.933 2.81-2.292 5.728-1.653-.292-3.505-.565-5.48-.87-9.338-1.44-9.71-3.71-9.642-4.202 0 0-.76.583-.312 1.717.67 1.686 4.31 2.112 9.956 3.03 1.577.254 3.474.456 5.287.736l-.488 1.046c-2.247 4.804-4.3 7.557-4.954 6.954-.215-.2.636-1.105 1.185-1.647.34-.335.495-.81.42-1.28-.123-.76-.547-1.085-.883-1.226a.535.535 0 0 0-.646.19c-2.462 3.584-3.964 4.102-4.242 3.844-.372-.345-.19-1.4 1.44-2.96 2.082-1.99 3.113-1.996 3.566-1.785a.147.147 0 0 0 .158-.02.145.145 0 0 0 .045-.152c-.173-.602-.597-1.64-1.486-1.815-1.266-.247-2.706.74-4.07 2.37-.72.86-1.164 1.905-1.23 2.835-1.695 1.803-3.643 1.98-4.31 1.312-.784-.787-.31-2.065.228-2.97.627-1.054 2.47-2.543 3.08-1.912.86.89-3.037 3.014-3.153 2.583 0 0 .493 1.518 2.453-.26 1.048-.95 2.01-1.986 1.32-3.083-.893-1.423-3.816-1.41-5.056.63-.437.716-.706 1.394-.837 2.018-.326.017-.64.037-.94.06.634-2.013.237-3.66-1.438-4.122-.988-.272-1.86.02-2.51.406.373-1.01.768-2.047 1.123-2.857 1.68-.193 3.218-.73 3.89-1.53.95-1.135.543-2.476-.216-2.994-1.797-1.228-4.176.925-5.966 4.206a16.79 16.79 0 0 1-.603-.06c-.535-.06-1.776-.118-2.286-.17.32-.775.497-1.416.423-1.826-.237-1.305-2-1.92-2-1.92.425.118-.344 1.906-1.15 3.502-4.54-.338-7.142-.284-7.427.626-.368 1.174 1.407 1.462 1.407 1.462 1.23-1.223 3.2-1.485 5.74-1.538-.596 1.157-1.298 2.45-1.986 3.726-3.02 5.594-4.65 6.477-5.06 6.11-.895-.804 4.23-4.078.524-5.79-.953-.44-1.158-.85-1.158-.85s.723-2.55-1.026-2.77c-1.31-.167-1.228 2.146 0 3.774-1.442 4.02-2.884 6.357-3.507 5.574-.293-.367.153-1.095.545-1.608a1.23 1.23 0 0 0 .008-1.487c-.374-.498-.812-.73-1.075-.832a.263.263 0 0 0-.334.134c-1.717 3.708-3.394 4.054-3.708 3.732-.425-.436.657-2.144 1.092-2.675 1.072-1.306 2.63-2.3 3.03-2.24.053.01.12.104.184.22a.12.12 0 0 0 .227-.06c-.004-.45-.06-1.073-.315-1.37-.76-.89-2.83-.692-5.21 2.38-.718.926-.964 1.943-.865 2.785-1.723 1.664-3.84 1.763-4.504.794-.544-.796-.067-1.91.545-2.77.626-.88 2.664-2.538 3.21-1.685.484.757-2.12 1.96-2.877 2.29a.326.326 0 0 0-.192.35c.113.702 1.013.39 2.605-1.02 1.06-.94 1.416-1.792 1.06-2.424-.876-1.56-3.408-1.516-5.162.447-3.453 3.865 1.54 8.352 5.414 4.493.543 1.807 2.874 2.335 5.29-1.97 0 0-1.247 2.215.28 3.18 1.99 1.253 3.688-3.212 4.64-5.8.265.27.567.506.905.69 0 0-2.473 3.59-.574 5.033 1.818 1.383 4.486-2.978 5.52-4.76 0 0-1.41 3.362 1.39 4.688 1.124.533 5.17.957 7.683-5.916.58-.83 1.39-1.603 2.284-1.318 1.622.518.178 3.146-.362 4.06-3.935.696-4.564 2.094-3.96 2.952.836 1.188 4.992.538 6.27-2.725.01-.024.017-.05.027-.074.324-.02.666-.038 1.024-.05-.347 3.3 3.342 4.81 6.367 1.857.08.566.335 1.05.796 1.363 1.073.73 2.79-.81 3.807-2.093 0 0-1.04 1.566.48 2.22 1.812.78 3.77-2.932 4.93-5.014-.468.897-1.735 3.873 1.274 5.24 1.67.757 4.805-.524 6.463-2.79 2.456-3.358.437-4.81-3.834-5.815"/></g></symbol><symbol viewBox="0 0 20 28" id="footer--point"><title>point</title><defs><path id="aba" d="M9.877 28c5.454-8.235 9.876-12.66 9.876-18.118C19.753 4.424 15.33 0 9.877 0 4.422 0 0 4.424 0 9.882 0 15.34 4.422 19.765 9.877 28z"/></defs><g fill="none" fill-rule="evenodd"><g opacity=".8"><use xlink:href="#aba"/><use fill="#FF2E2E" xlink:href="#aba"/><use xlink:href="#aba"/><use xlink:href="#aba"/><use xlink:href="#aba"/></g><g transform="translate(3.524 3.075)" fill="#FFFFEC"><path d="M7.102.17h-.416v5.727c.296.112.518.345.63.644h5.14v-.42c0-5.23-2.57-5.95-5.354-5.95zm.416 5.577V.963c2.635 0 3.995 1.075 4.096 4.784H7.518zM5.472 7.227H.342v.42c0 5.232 2.57 5.952 5.352 5.952h.416V7.86a1.053 1.053 0 0 1-.638-.635zm-.194 5.578c-2.635 0-4.003-1.075-4.096-4.784h4.096v4.785z"/></g></g></symbol><symbol viewBox="0 0 11 5" id="header--language-dropdown--lang-drop-arrow"><title>arrow</title><g transform="translate(1)" stroke-linecap="square" stroke="#000" fill="none" fill-rule="evenodd"><path d="M.41.417l3.47 3.535M8.59.417L4.54 4.54"/></g></symbol><symbol viewBox="0 0 19 14" id="header--language-dropdown--ru"><title>languages</title><g transform="translate(1 1)" fill="none" fill-rule="evenodd"><path stroke="#E2E2E2" d="M0 0h17v12H0z"/><path fill="#0433FF" d="M0 4h17v4H0z"/><path fill="#FFF" d="M0 0h17v4H0z"/><path fill="#FF2500" d="M0 8h17v4H0z"/></g></symbol><symbol viewBox="0 0 9 17" id="header--social--facebook"><title>Page 1</title><path d="M6.64.474c-2.29 0-3.77 1.518-3.77 3.87v1.783H.82a.32.32 0 0 0-.32.32v2.585c0 .177.144.32.32.32h2.05v6.523c0 .177.144.32.32.32h2.676a.32.32 0 0 0 .32-.32V9.353h2.397a.32.32 0 0 0 .32-.32V6.447a.32.32 0 0 0-.32-.32H6.187V4.614c0-.727.173-1.096 1.12-1.096l1.374-.002a.32.32 0 0 0 .32-.32v-2.4a.32.32 0 0 0-.32-.32L6.64.473z" fill="#4A70CF" fill-rule="evenodd"/></symbol><symbol viewBox="0 0 17 15" id="header--social--twitter"><title>Page 1</title><path d="M14.998 2.494A3.502 3.502 0 0 0 16.53.566c-.675.4-1.42.69-2.216.846a3.488 3.488 0 0 0-5.943 3.18A9.9 9.9 0 0 1 1.184.948 3.46 3.46 0 0 0 .714 2.7c0 1.21.615 2.278 1.55 2.903a3.488 3.488 0 0 1-1.58-.438v.044A3.49 3.49 0 0 0 3.48 8.627c-.29.08-.6.123-.918.123-.225 0-.443-.022-.656-.064a3.49 3.49 0 0 0 3.257 2.422 6.997 6.997 0 0 1-4.33 1.49c-.283 0-.56-.017-.833-.048a9.858 9.858 0 0 0 5.346 1.57c6.415 0 9.92-5.314 9.92-9.922l-.01-.452A6.964 6.964 0 0 0 17 1.944a6.964 6.964 0 0 1-2.002.55z" fill="#5BD4FF" fill-rule="evenodd"/></symbol><symbol viewBox="0 0 17 13" id="header--social--youtube"><title>Page 1</title><path d="M6.8 9.642V2.647l4.855 3.497L6.8 9.642zM17 2.777C17 1.243 15.863 0 14.46 0H2.54C1.138 0 0 1.243 0 2.777v7.446C0 11.757 1.137 13 2.54 13h11.92c1.403 0 2.54-1.243 2.54-2.777V2.777z" fill="#F44" fill-rule="evenodd"/></symbol><symbol viewBox="0 0 119 37" id="header--src-top-logo"><title>src-top-logoscr-top-logo</title><defs><linearGradient x1="0%" y1="0%" y2="100%" id="ahb"><stop stop-color="#5C698C" offset="0%"/><stop stop-color="#D1A9A9" offset="100%"/></linearGradient><path d="M35 17.5C35 7.835 27.165 0 17.5 0v13.472h.066c2.24 0 4.06 1.797 4.094 4.028H35zM17.5 35C7.835 35 0 27.165 0 17.5h13.472v.066c0 2.24 1.797 4.06 4.028 4.094V35z" id="aha"/><circle id="ahc" cx="17.533" cy="17.533" r="1.75"/></defs><g transform="translate(1 1)" fill="none" fill-rule="evenodd"><text opacity=".8" font-family="Optotypo" font-size="14" letter-spacing="2.68" fill="#716373"><tspan x="53" y="24">DEF-</tspan> <tspan x="106.854" y="24">C</tspan></text><use xlink:href="#aha"/><use stroke="url(#ahb)" stroke-width="1.5" xlink:href="#aha"/><use xlink:href="#aha"/><g><use xlink:href="#ahc"/><use stroke="url(#ahb)" stroke-width="1.5" xlink:href="#ahc"/><use xlink:href="#ahc"/></g></g></symbol><symbol viewBox="0 0 32 32" id="scr-aboutus--arrow"><title>Group 2</title><defs><linearGradient x1="100%" y1="0%" x2="0%" y2="100%" id="aia"><stop stop-color="#45C7FF" offset="0%"/><stop stop-color="#3EFF6E" offset="100%"/></linearGradient></defs><g fill="url(#aia)" fill-rule="evenodd"><path d="M16 32c8.837 0 16-7.163 16-16S24.837 0 16 0 0 7.163 0 16s7.163 16 16 16zm0-2C8.268 30 2 23.732 2 16S8.268 2 16 2s14 6.268 14 14-6.268 14-14 14z"/><path d="M9.162 14.858l6.14 6 .512.5.35.34.35-.34 1.023-1 .366-.358-.366-.358-.512-.5-6.14-6-.512-.5-.35-.34-.35.34-1.022 1-.365.358.366.358.512.5.7-.716-.513-.5v.716l1.023-1h-.7l.513.5 6.14 6 .512.5v-.716l-1.024 1h.7l-.512-.5-6.14-6-.7.716zm13.977-.716l-6.142 6-.51.5h.698l-1.024-1v.716l.512-.5 6.14-6 .512-.5h-.7l1.025 1v-.716l-.51.5.698.716.51-.5.367-.358-.366-.358-1.024-1-.35-.34-.35.34-.51.5-6.14 6-.513.5-.366.358.366.358 1.024 1 .35.34.35-.34.51-.5 6.14-6-.698-.716z"/></g></symbol><symbol viewBox="0 0 100 100" id="scr-aboutus--play"><title>Oval 1 + Triangle 1 + Triangle 1 Copy</title><g stroke="#FFF" fill="none" fill-rule="evenodd"><ellipse fill="none" cx="44" cy="44" rx="44" ry="44"/><path d="M37 56.5V32l20.417 12.25L37 56.5z"/></g></symbol><symbol viewBox="0 0 18 18" id="scr-aerodynamics--point"><title>Oval 50</title><defs><linearGradient x1="100%" y1="0%" x2="0%" y2="100%" id="aka"><stop stop-color="#45C7FF" offset="0%"/><stop stop-color="#3EFF6E" offset="100%"/></linearGradient></defs><circle cx="1094" cy="3010" r="8" transform="translate(-1085 -3001)" stroke="url(#aka)" stroke-width="2" fill="none" fill-rule="evenodd"/></symbol><symbol viewBox="0 0 34 40" id="scr-features--features-list-item1"><title>features-list-item1</title><g transform="translate(1 1)" stroke="#B7B8B3" stroke-width="2" stroke-linecap="round" stroke-linejoin="round" fill="none" fill-rule="evenodd"><path d="M22 38s10-7.97 10-16c0-5.52-4.477-10-10-10s-10 4.48-10 10c0 8.03 10 16 10 16zm4-16a4 4 0 1 1-8 0 4 4 0 0 1 8 0zM6.538 17s6.54-5.21 6.54-10.462A6.54 6.54 0 0 0 0 6.538C0 11.788 6.538 17 6.538 17zM9.154 6.538a2.615 2.615 0 1 1-5.23 0 2.615 2.615 0 0 1 5.23 0z"/></g></symbol><symbol viewBox="0 0 31 31" id="scr-features--features-list-item2"><title>features-list-item2</title><g transform="translate(1 1)" fill="none" fill-rule="evenodd"><path d="M29 14.5C29 22.508 22.508 29 14.5 29S0 22.508 0 14.5 6.492 0 14.5 0 29 6.492 29 14.5zM14.5 4.462V14.5h6.692" stroke="#B4B5B0" stroke-width="2" stroke-linecap="round" stroke-linejoin="round"/><path d="M15.615 24.538c0 .614-.5 1.116-1.115 1.116a1.117 1.117 0 0 1-1.115-1.116c0-.613.5-1.115 1.115-1.115.616 0 1.115.502 1.115 1.115M5.577 14.5c0 .613-.5 1.115-1.115 1.115A1.117 1.117 0 0 1 3.346 14.5c0-.613.5-1.115 1.116-1.115.615 0 1.115.502 1.115 1.115M26.77 14.5c0 .613-.5 1.115-1.116 1.115a1.117 1.117 0 0 1-1.116-1.115c0-.613.5-1.115 1.116-1.115.616 0 1.115.502 1.115 1.115" fill="#B4B5B0"/></g></symbol><symbol viewBox="0 0 18 39" id="scr-features--features-list-item3"><title>features-list-item3</title><g fill="#B4B5B1" fill-rule="evenodd"><path d="M4.565 15.76c.308.16.693.05.86-.25a.603.603 0 0 0-.258-.83c-2.405-1.254-3.9-3.668-3.9-6.3 0-3.944 3.32-7.154 7.4-7.154s7.398 3.21 7.398 7.155c0 2.632-1.494 5.046-3.9 6.3a.603.603 0 0 0-.256.832.648.648 0 0 0 .86.248c2.814-1.47 4.563-4.297 4.563-7.38 0-4.62-3.887-8.38-8.666-8.38C3.887 0 0 3.76 0 8.38c0 3.083 1.75 5.91 4.565 7.38z"/><path d="M10.98 11.553a.6.6 0 0 0-.152.855.646.646 0 0 0 .884.147c1.402-.96 2.24-2.52 2.24-4.174 0-2.817-2.37-5.11-5.285-5.11-2.914 0-5.285 2.293-5.285 5.11 0 1.655.837 3.215 2.24 4.174.285.196.68.13.883-.146a.6.6 0 0 0-.15-.855C5.286 10.823 4.65 9.637 4.65 8.38c0-2.14 1.802-3.883 4.017-3.883 2.214 0 4.016 1.742 4.016 3.884 0 1.257-.637 2.443-1.703 3.173z"/><path d="M16.07 31.072c0-.002 0-.004-.002-.006L9.3 11.958v-1.843c.74-.253 1.27-.935 1.27-1.734 0-1.014-.854-1.84-1.903-1.84-1.05 0-1.903.826-1.903 1.84 0 .8.53 1.482 1.27 1.735v1.843L5.587 18.86l-.006.016-2.106 5.948-.008.023-3.312 9.35a.61.61 0 0 0 .394.78.655.655 0 0 0 .206.033c.264 0 .51-.16.6-.415l.86-2.426 5.817 3.26v2.957c0 .338.283.613.634.613.35 0 .634-.275.634-.613V35.43l5.818-3.26.86 2.423a.64.64 0 0 0 .804.382.61.61 0 0 0 .395-.78l-1.107-3.123zM6.487 20.107l1.546 1.27v5.54L4.83 24.783l1.657-4.676zm2.814 1.27l1.546-1.27 1.657 4.676L9.3 26.917v-5.54zm1.105-2.517l-1.104.908v-4.025l1.105 3.117zM8.667 7.767c.35 0 .634.275.634.614a.625.625 0 0 1-.633.614.625.625 0 0 1-.634-.613c0-.338.284-.613.634-.613zm-.634 12L6.93 18.86l1.103-3.117v4.025zm-5.4 11.22l1.77-5 3.63 2.42v5.604l-5.4-3.024zm6.668 3.024v-5.603l3.63-2.42 1.77 5-5.4 3.024z"/></g></symbol><symbol viewBox="0 0 30 30" id="scr-features--features-list-item4"><title>features-list-item4</title><path d="M28.363 10.848l.028-.024-.06-.07C26.53 5.104 21.235 1 14.996 1 7.278 1 1 7.278 1 14.995S7.278 28.99 14.995 28.99 28.99 22.712 28.99 14.995c0-1.443-.22-2.836-.627-4.147zm-1.05-.29l-6.91 5.906L23.848 5.36a13.125 13.125 0 0 1 3.464 5.2zm-4.214-5.833L20.4 13.42 17.126 2.08c2.23.366 4.272 1.3 5.973 2.645zm-4.066 7.39l.077.05.024.066c-.032-.038-.067-.076-.1-.114zm.025 2.88a4.066 4.066 0 0 1-3.442 4.01l-.636.052a4.02 4.02 0 0 1-1.535-.308l-1.093-.674a4.096 4.096 0 0 1-.632-.685l-.573-1.097a4.034 4.034 0 0 1 .595-3.724l.95-.92a4.04 4.04 0 0 1 2.3-.72 4.07 4.07 0 0 1 4.064 4.065zM14.994 1.903c.39 0 .774.02 1.156.054l2.53 8.76L8.983 3.37a13.004 13.004 0 0 1 6.013-1.467zm-6.87 1.953l8.545 6.47a4.933 4.933 0 0 0-1.675-.297H2.885a13.17 13.17 0 0 1 5.24-6.174zm-6.222 11.14c0-1.42.23-2.784.65-4.064h9.596c-.41.288-.774.637-1.08 1.034L2.86 19.9a13.018 13.018 0 0 1-.957-4.905zm1.35 5.78l6.76-6.534-.66 12.558a13.18 13.18 0 0 1-6.1-6.023zm11.742 7.31c-1.68 0-3.282-.322-4.757-.9l.506-9.657c.067.112.13.228.206.334l5.3 10.162c-.414.04-.832.06-1.255.06zm2.207-.19l-4.413-8.46c.078.04.156.08.237.116l9.713 5.99a13.03 13.03 0 0 1-5.538 2.355zm6.288-2.95l-8.11-5.004c.108-.01.216-.022.323-.037l11.777-.968a13.127 13.127 0 0 1-3.99 6.008zm4.243-6.936l-8.572.705 8.448-7.22a13.034 13.034 0 0 1 .125 6.515z" stroke="#B4B5B1" fill="none" fill-rule="evenodd"/></symbol><symbol viewBox="0 0 299 142" id="scr-features--waves-sm"><title>Group</title><defs><linearGradient x1="100%" y1="0%" x2="0%" y2="100%" id="apa"><stop stop-color="#45C7FF" offset="0%"/><stop stop-color="#3EFF6E" offset="100%"/></linearGradient></defs><g transform="rotate(-2 204.694 112.65)" stroke="url(#apa)" fill="none" fill-rule="evenodd"><path d="M.986 120.875S23.6 53.872 80.856 58.89c57.254 5.02 78.615-21.13 85.085-33.248 6.47-12.117 9.134-19.06 20.353-25.456"/><path d="M8.945 122.038s22.613-67.003 79.87-61.985c57.254 5.02 78.615-21.13 85.085-33.248 6.47-12.117 9.133-19.06 20.352-25.457"/><path d="M17.322 123.2s22.614-67.003 79.87-61.984c57.255 5.018 78.616-21.132 85.086-33.25 6.47-12.115 9.132-19.058 20.35-25.455"/><path d="M25.28 124.363s22.615-67.003 79.87-61.985c57.255 5.02 78.616-21.13 85.086-33.248 6.47-12.117 9.133-19.06 20.352-25.457"/><path d="M33.24 125.526s22.614-67.003 79.87-61.985c57.254 5.02 78.615-21.13 85.085-33.247 6.47-12.117 9.133-19.06 20.352-25.457"/><path d="M41.618 126.688s22.613-67.003 79.87-61.984c57.254 5.018 78.615-21.132 85.085-33.25 6.47-12.116 9.133-19.058 20.352-25.455"/><path d="M49.996 127.85S72.61 60.85 129.864 65.867c57.256 5.02 78.617-21.13 85.087-33.248 6.47-12.117 9.134-19.06 20.352-25.457"/><path d="M57.954 129.013s22.614-67.003 79.87-61.984c57.255 5.017 78.616-21.133 85.086-33.25 6.47-12.116 9.132-19.06 20.35-25.456"/><path d="M65.913 130.176s22.614-67.003 79.87-61.985c57.254 5.02 78.615-21.13 85.085-33.247 6.47-12.117 9.133-19.06 20.352-25.457"/><path d="M73.872 131.34s22.614-67.004 79.87-61.986c57.254 5.02 78.615-21.13 85.085-33.248 6.47-12.117 9.133-19.06 20.352-25.457"/><path d="M82.25 132.5s22.613-67.002 79.87-61.983c57.254 5.018 78.615-21.132 85.085-33.25 6.47-12.116 9.133-19.058 20.352-25.455"/><path d="M90.21 133.664S112.82 66.66 170.076 71.68c57.256 5.018 78.617-21.132 85.087-33.25 6.47-12.116 9.133-19.06 20.352-25.456"/><path d="M98.168 134.826s22.613-67.003 79.868-61.984c57.256 5.018 78.617-21.132 85.087-33.248 6.47-12.117 9.133-19.06 20.35-25.457"/><path d="M106.545 135.99s22.614-67.004 79.87-61.985c57.254 5.018 78.615-21.132 85.085-33.25 6.47-12.116 9.133-19.058 20.352-25.455"/><path d="M114.923 137.152s22.613-67.003 79.87-61.985c57.254 5.02 78.615-21.13 85.085-33.248 6.47-12.118 9.133-19.06 20.352-25.458"/><path d="M122.882 138.314s22.613-67.003 79.87-61.984c57.254 5.018 78.615-21.132 85.085-33.25 6.47-12.116 9.133-19.058 20.352-25.455"/></g></symbol><symbol viewBox="0 0 19 20" id="scr-gallery--zoom"><title>Fill 3075 + Fill 3076</title><g fill="#FFF" fill-rule="evenodd"><path d="M1 7.5C1 3.916 3.914 1 7.5 1 11.082 1 14 3.916 14 7.5S11.082 14 7.5 14A6.508 6.508 0 0 1 1 7.5zm17.868 11.662l-5.943-6.484A7.443 7.443 0 0 0 15 7.5a7.45 7.45 0 0 0-2.196-5.303A7.458 7.458 0 0 0 7.5 0C5.497 0 3.612.78 2.197 2.197A7.454 7.454 0 0 0 0 7.5c0 2.003.78 3.887 2.197 5.303A7.454 7.454 0 0 0 7.5 15a7.44 7.44 0 0 0 4.688-1.645l5.943 6.483a.498.498 0 1 0 .738-.675z"/><path d="M11.5 7H8V3.5a.5.5 0 0 0-1 0V7H3.5a.5.5 0 0 0 0 1H7v3.5a.5.5 0 0 0 1 0V8h3.5a.5.5 0 0 0 0-1"/></g></symbol><symbol viewBox="0 0 15 8" id="scr-specs--arrow-down"><title>Line</title><path d="M7.5 7.672L7.164 8l-.512-.5-6.14-6L0 1l1.023-1 .512.5L7.5 6.328 13.465.5l.512-.5L15 1l-.512.5-6.14 6-.512.5-.336-.328z" fill="#979797" opacity=".305" fill-rule="evenodd"/></symbol><symbol viewBox="0 0 17 10" id="scr-specs--arrow-up"><title>Line Copy</title><defs><linearGradient x1="100%" y1="0%" x2="0%" y2="100%" id="asa"><stop stop-color="#45C7FF" offset="0%"/><stop stop-color="#3EFF6E" offset="100%"/></linearGradient><path d="M292.5 5328.328l-.336-.328-.512.5-6.14 6-.512.5 1.023 1 .512-.5 5.965-5.828 5.965 5.828.512.5 1.023-1-.512-.5-6.14-6-.512-.5-.336.328z" id="asb"/></defs><g transform="translate(-284 -5327)" fill="none" fill-rule="evenodd"><use stroke="url(#asa)" xlink:href="#asb"/><use fill="#FFF" xlink:href="#asb"/></g></symbol><symbol viewBox="0 0 402 52" id="scr-specs--border"><title>Rectangle 48</title><defs><linearGradient x1="100%" y1="0%" x2="0%" y2="100%" id="ata"><stop stop-color="#45C7FF" offset="0%"/><stop stop-color="#3EFF6E" offset="100%"/></linearGradient><path id="atb" d="M471 4949h390.26l10.088 25-10.087 25H471v-50z"/></defs><g transform="translate(-470 -4948)" fill="none" fill-rule="evenodd"><use stroke="url(#ata)" xlink:href="#atb"/><use fill="#fff" xlink:href="#atb"/></g></symbol><symbol viewBox="0 0 500 500" id="scr-top--interactive-menu--item1"><title>item1</title><g fill="none" fill-rule="evenodd"><path d="M500 250C500 111.93 388.07 0 250 0h-16.13V212.56l16.385-.26c.313-.005.313-.005.628-.005 21.078 0 38.25 16.917 38.583 37.96l.25 15.874h210.285V250zm-32.258 0l16.13-16.13H305.59l16.128 15.875c-.612-38.65-32.135-69.708-70.837-69.708-.57 0-.57 0-1.138.01l.255 16.126h16.13V16.13L250 32.257c120.256 0 217.742 97.486 217.742 217.742zM250 467.742c-120.256 0-217.742-97.486-217.742-217.742l-16.13 16.13h180.045V250l-16.127-.255c-.008.568-.008.568-.01 1.138 0 38.702 31.058 70.225 69.71 70.837l-15.875-16.127V483.87L250 467.743zM250 500h16.13V289.717l-15.875-.25c-21.043-.334-37.96-17.506-37.96-38.584 0-.315 0-.315.005-.628l.26-16.384H-.002V250c0 138.07 111.93 250 250 250z" fill="#fff"/><path d="M483.87 250c0-129.163-104.707-233.87-233.87-233.87v180.043c.294-.005.588-.007.883-.007 29.924 0 54.238 24.022 54.71 53.834H483.87zM250 483.87C120.837 483.87 16.13 379.164 16.13 250h180.043c-.005.294-.007.588-.007.883 0 29.924 24.022 54.238 53.834 54.71V483.87z"/><path d="M483.87 250c0-129.163-104.707-233.87-233.87-233.87v180.043c.294-.005.588-.007.883-.007 29.924 0 54.238 24.022 54.71 53.834H483.87zM250 483.87C120.837 483.87 16.13 379.164 16.13 250h180.043c-.005.294-.007.588-.007.883 0 29.924 24.022 54.238 53.834 54.71V483.87z"/><circle cx="250.441" cy="250.441" r="23.387"/><circle cx="250.441" cy="250.441" r="23.387"/><circle cx="250.441" cy="250.441" r="23.387"/></g></symbol><symbol viewBox="0 0 28 28" id="scr-top--interactive-menu--item2"><title>interactive-menu-item2</title><g transform="translate(1 1)" fill="none" fill-rule="evenodd"><path d="M4 15l5-7 5 7 4-4 4 4" stroke="#FFF" stroke-width="2" stroke-linecap="round" stroke-linejoin="round"/><path d="M17 8c0 1.1-.895 2-2 2s-2-.9-2-2 .895-2 2-2 2 .9 2 2" fill="#FFF"/><path d="M24 26H2c-1.1 0-2-.9-2-2V2C0 .9.9 0 2 0h22c1.1 0 2 .9 2 2v22c0 1.1-.9 2-2 2zM0 22h26H0zM4 4h18v14H4V4z" stroke="#FFF" stroke-width="2" stroke-linecap="round" stroke-linejoin="round"/></g></symbol><symbol viewBox="0 0 30 30" id="scr-top--interactive-menu--item3"><title>interactive-menu-item3</title><g transform="translate(1 1)" stroke="#FFF" stroke-width="2" fill="none" fill-rule="evenodd"><path d="M18.308 14l-6.462-4.308v8.616L18.308 14z" stroke-linecap="round" stroke-linejoin="round"/><path d="M28 14c0 7.732-6.268 14-14 14S0 21.732 0 14 6.268 0 14 0s14 6.268 14 14z"/></g></symbol><symbol viewBox="0 0 23 29" id="scr-top--interactive-menu--item4"><title>interactive-menu-item4</title><g transform="translate(1 1)" stroke="#FFF" stroke-width="2" fill="none" fill-rule="evenodd"><path d="M18.853 26.738H2.56a2.043 2.043 0 0 1-2.036-2.036V2.298c0-1.12.916-2.036 2.036-2.036h16.293c1.12 0 2.037.916 2.037 2.036v22.404c0 1.12-.916 2.036-2.037 2.036z"/><path d="M4.597 8.408H8.67m-4.073 4.074h12.22m-12.22 4.073h7.128m3.055 0h2.037m-12.22 4.073h2.037" stroke-linecap="round"/></g></symbol><symbol viewBox="0 0 16 16" id="scr-top--interactive-menu--point"><title>Oval 70</title><circle cx="19" cy="19" r="7" transform="translate(-11 -11)" stroke="#FFF" stroke-width="2" fill="none" fill-rule="evenodd"/></symbol><symbol viewBox="0 0 40 40" id="scr-top--interactive-menu--point-active"><title>Group 2</title><g transform="translate(1 1)" stroke="#FFF" fill="none" fill-rule="evenodd"><circle stroke-width="2" cx="19" cy="19" r="7"/><path d="M0 19c0 10.493 8.507 19 19 19m19-19C38 8.507 29.493 0 19 0" stroke-linecap="round" stroke-linejoin="round" opacity=".2"/></g></symbol><symbol viewBox="0 0 10 10" id="scr-top--magnet-navigation--magnet-navigation-link"><title>Shape</title><path d="M5 9.5a4.5 4.5 0 1 0 0-9 4.5 4.5 0 0 0 0 9zm0-1a3.5 3.5 0 1 1 0-7 3.5 3.5 0 0 1 0 7z"/></symbol><symbol viewBox="0 0 18 18" id="scr-top--magnet-navigation--magnet-navigation-link--active"><title>Group 2</title><g fill="none" fill-rule="evenodd"><path d="M.5 9A8.5 8.5 0 0 0 9 17.5v-1A7.5 7.5 0 0 1 1.5 9h-1zm17 0A8.5 8.5 0 0 0 9 .5v1A7.5 7.5 0 0 1 16.5 9h1z" fill="#FFF"/><circle stroke="#FFF" cx="9" cy="9" r="4"/></g></symbol><symbol viewBox="0 0 18 18" id="scr-top--magnet-navigation--magnet-navigation-link--active-grad"><title>Group 4</title><defs><linearGradient x1="100%" y1="0%" x2="0%" y2="100%" id="bca"><stop stop-color="#45C7FF" offset="0%"/><stop stop-color="#3EFF6E" offset="100%"/></linearGradient></defs><g fill="none" fill-rule="evenodd"><path d="M.5 9A8.5 8.5 0 0 0 9 17.5v-1A7.5 7.5 0 0 1 1.5 9h-1zm17 0A8.5 8.5 0 0 0 9 .5v1A7.5 7.5 0 0 1 16.5 9h1z" fill="url(#bca)"/><circle stroke="url(#bca)" cx="9" cy="9" r="4"/></g></symbol><symbol viewBox="0 0 10 10" id="scr-top--magnet-navigation--magnet-navigation-link-grad"><title>Shape</title><defs><linearGradient x1="100%" y1="0%" x2="0%" y2="100%" id="bda"><stop stop-color="#45C7FF" offset="0%"/><stop stop-color="#3EFF6E" offset="100%"/></linearGradient></defs><path d="M8 8.5a4.5 4.5 0 1 0 0-9 4.5 4.5 0 0 0 0 9zm0-1a3.5 3.5 0 1 1 0-7 3.5 3.5 0 0 1 0 7z" transform="translate(-3 1)" fill="url(#bda)" fill-rule="evenodd"/></symbol><symbol viewBox="0 0 637 32" id="scr-top--main-logo"><title>OBSERVER-S + OBSERVER-S Copy 2</title><text transform="translate(-65 -24)" font-family="Optotypo" letter-spacing="33.62" font-size="42" fill="#FFF" fill-rule="evenodd"><tspan x="63.929" y="55">OBSERVER-</tspan> <tspan x="671.849" y="55">S</tspan></text></symbol><symbol viewBox="0 0 486 24" id="scr-transporting--logo"><title>OBSERVER-S + OBSERVER-S Copy 2</title><text transform="translate(-1 -10)" font-family="Optotypo" letter-spacing="25.615" font-size="32" fill="#FFF" fill-rule="evenodd"><tspan x=".448" y="32.687">OBSERVER-S</tspan></text></symbol></svg>