<?xml version="1.0" encoding="UTF-8" standalone="no"?><!DOCTYPE svg PUBLIC "-//W3C//DTD SVG 1.1//EN" "http://www.w3.org/Graphics/SVG/1.1/DTD/svg11.dtd"><svg xmlns="http://www.w3.org/2000/svg" xmlns:xlink="http://www.w3.org/1999/xlink"><symbol viewBox="0 0 20 20" id="Archive--ico-add"><path d="M10 20c5.523 0 10-4.477 10-10S15.523 0 10 0 0 4.477 0 10s4.477 10 10 10zm-1-9H5.5V9H9V5.5h2V9h3.5v2H11v3.5H9V11z"/></symbol><symbol viewBox="0 0 90 90" id="Archive--ico-add-file-gray"><title>ico-add-file</title><defs><path id="ba" d="M44 88c24.3 0 44-18.914 44-43.494S68.3 0 44 0 0 19.926 0 44.506C0 69.086 19.7 88 44 88z"/></defs><g transform="translate(1 1)" fill="none" fill-rule="evenodd"><use xlink:href="#ba"/><use xlink:href="#ba"/><use stroke="#D4D8E2" stroke-linecap="round" stroke-linejoin="round" stroke-dasharray="8,8,8,8" xlink:href="#ba"/><path d="M28 23.005A2 2 0 0 1 29.998 21H52c0 .075 10 8.95 10 8.887V63c0 1.105-.892 2-2 2H30c-1.105 0-2-.9-2-2.005v-39.99z" fill="#E4E6EC"/><path d="M52 21s10.062 9.188 10.062 9.05h-8.064A2.005 2.005 0 0 1 52 28.046V21z" fill="#E4E6EB"/><circle fill="#FFF" cx="42" cy="51" r="10"/><rect fill="#D4D8E2" x="37" y="50" width="10" height="2" rx="3"/><rect fill="#D4D8E2" transform="rotate(90 42 51)" x="37" y="50" width="10" height="2" rx="3"/><path d="M51.503 20.98v7.57s-.088 1.994 2.188 1.994h8.295" stroke="#FFF"/></g></symbol><symbol viewBox="0 0 17 15" id="Archive--ico-add-folder"><path d="M2 1a.4.4 0 0 0-.275.172L1.17 2.278c-.087.176-.17.527-.17.724v10.5a.5.5 0 0 0 .5.5h14a.5.5 0 0 0 .5-.5v-10a.5.5 0 0 0-.5-.5H11c-.46 0-.965-.31-1.17-.724l-.555-1.106c-.037-.077-.19-.17-.275-.17H2zm-.5 14C.673 15 0 14.33 0 13.5V3c0-.35.12-.855.275-1.17L.83.724C1.034.31 1.54 0 2 0h7c.46 0 .964.31 1.17.724l.555 1.106c.037.077.19.17.275.17h4.5c.827 0 1.5.674 1.5 1.5v10c0 .828-.673 1.5-1.5 1.5h-14z"/><path d="M11.5 8H9V5.5a.5.5 0 0 0-1 0V8H5.5a.5.5 0 0 0 0 1H8v2.5a.5.5 0 0 0 1 0V9h2.5a.5.5 0 0 0 0-1"/></symbol><symbol class="dico-drag-and-drop" viewBox="0 0 34 44" id="Archive--ico-add-item"><path d="M0 2.005A2 2 0 0 1 1.998 0H24c0 .075 10 8.95 10 8.887V42c0 1.105-.892 2-2 2H2c-1.105 0-2-.9-2-2.005V2.005z" fill="#FFF"/><path d="M24 0s10.062 9.188 10.062 9.05h-8.064A2.005 2.005 0 0 1 24 7.046V0z" fill="#FFF"/><circle fill="#47C5A2" cx="14" cy="30" r="10"/><rect fill="#FFF" x="9" y="29" width="10" height="2" rx="3"/><rect fill="#FFF" transform="rotate(90 14 30)" x="9" y="29" width="10" height="2" rx="3"/></symbol><symbol viewBox="0 0 19 19" id="Archive--ico-approoved"><title>ico-task-approoved</title><g fill="#47C5A2" fill-rule="evenodd"><path d="M9.025 19c-2.41 0-4.677-.94-6.382-2.643A8.962 8.962 0 0 1 0 9.977c0-2.412.94-4.678 2.643-6.383A8.963 8.963 0 0 1 9.025.95c2.41 0 4.677.94 6.382 2.644a8.964 8.964 0 0 1 2.643 6.382c0 2.41-.94 4.677-2.643 6.38A8.967 8.967 0 0 1 9.025 19zm0-17.1C4.572 1.9.95 5.522.95 9.975c0 4.454 3.622 8.075 8.075 8.075 4.453 0 8.075-3.62 8.075-8.075 0-4.453-3.622-8.075-8.075-8.075z"/><path d="M7.125 14.25a.477.477 0 0 1-.336-.14l-2.85-2.85a.475.475 0 1 1 .67-.67l2.514 2.513 6.314-6.314a.475.475 0 0 1 .672.67l-6.65 6.65a.473.473 0 0 1-.337.14h.002"/></g></symbol><symbol viewBox="0 0 20 20" id="Archive--ico-archive"><path d="M19.43 5.385l-2.492-4.272C16.568.48 15.736 0 15.002 0h-10c-.734 0-1.566.48-1.936 1.113L.574 5.385c-.32.55-.572 1.48-.572 2.116v3c0 .653.418 1.21 1 1.415V18.5c0 .828.673 1.5 1.5 1.5h15c.827 0 1.5-.672 1.5-1.5v-6.585c.582-.206 1-.762 1-1.414v-3c0-.636-.25-1.565-.572-2.115zM3.93 1.617C4.118 1.295 4.63 1 5.002 1h10c.373 0 .884.294 1.072.617l2.492 4.272c.02.035.042.075.063.117A1.334 1.334 0 0 0 18.5 6h-17c-.043 0-.085.003-.127.007.02-.042.042-.08.063-.118L3.93 1.616zM17.502 19h-15a.5.5 0 0 1-.5-.5V12h16v6.5a.5.5 0 0 1-.5.5zm1.5-8.5a.5.5 0 0 1-.5.5h-17a.5.5 0 0 1-.5-.5v-3a.5.5 0 0 1 .5-.5h17a.5.5 0 0 1 .5.5v3zm-6.5 5.5h-5c-.827 0-1.5-.672-1.5-1.5 0-.826.673-1.5 1.5-1.5h5c.827 0 1.5.674 1.5 1.5 0 .828-.673 1.5-1.5 1.5zm-5-2a.5.5 0 0 0 0 1h5a.5.5 0 0 0 0-1h-5z"/></symbol><symbol viewBox="0 0 8 5" id="Archive--ico-arrow"><path d="M4 3.293L1.086.38l-.707.706L3.913 4.62 4 4.537l.086.085L7.62 1.087 6.915.38 4 3.292z"/></symbol><symbol viewBox="0 0 32 32" id="Archive--ico-bookmarks"><path d="M32 12.408L20.944 10.8 16 .784 11.056 10.8 0 12.41l8 7.798-1.89 11.01L16 26.02l9.89 5.2L24 20.205l8-7.798z"/></symbol><symbol viewBox="0 0 19 19" id="Archive--ico-checkbox-checked"><path d="M9.502 19a9.44 9.44 0 0 1-6.718-2.78A9.434 9.434 0 0 1 .002 9.5a9.44 9.44 0 0 1 2.782-6.718A9.435 9.435 0 0 1 9.502 0c2.538 0 4.923.99 6.718 2.784a9.436 9.436 0 0 1 2.782 6.718 9.436 9.436 0 0 1-2.782 6.717A9.438 9.438 0 0 1 9.502 19zm0-18c-4.687 0-8.5 3.814-8.5 8.5 0 4.69 3.813 8.5 8.5 8.5 4.687 0 8.5-3.81 8.5-8.5 0-4.686-3.813-8.5-8.5-8.5z"/><path d="M7.502 13.5a.502.502 0 0 1-.354-.145l-3-3a.5.5 0 0 1 .707-.707L7.5 12.294l6.647-6.646a.5.5 0 0 1 .707.707l-7 7a.498.498 0 0 1-.354.146h.002"/></symbol><symbol viewBox="0 0 18 17" id="Archive--ico-clip"><path d="M9.75 10.997A3.67 3.67 0 0 1 7.146 9.92a.5.5 0 0 1 .708-.707 2.683 2.683 0 0 0 3.792 0l3.636-3.636a2.685 2.685 0 0 0 0-3.793 2.685 2.685 0 0 0-3.793 0L8.42 4.852a.5.5 0 1 1-.707-.707l3.067-3.068a3.685 3.685 0 0 1 5.207 0 3.685 3.685 0 0 1 0 5.207L12.353 9.92a3.675 3.675 0 0 1-2.604 1.077"/><path d="M3.68 16.997a3.67 3.67 0 0 1-2.604-1.077 3.687 3.687 0 0 1 0-5.207l3.636-3.636a3.685 3.685 0 0 1 5.207 0 .5.5 0 1 1-.707.707 2.685 2.685 0 0 0-3.794 0L1.783 11.42a2.683 2.683 0 1 0 3.792 3.793l3.07-3.068a.5.5 0 0 1 .706.707L6.284 15.92a3.675 3.675 0 0 1-2.604 1.077"/></symbol></svg>